<svg xmlns="http://www.w3.org/2000/svg" viewBox="0 0 407.36 146.61"><g id="Слой_2" data-name="Слой 2"><g id="Слой_1-2" data-name="Слой 1"><g id="Слой_2-2" data-name="Слой 2"><g id="Слой_1-2-2" data-name="Слой 1-2"><path d="M0,137.09a9.73,9.73,0,0,1,1.47-5.38,9.1,9.1,0,0,1,3.66-3.35,10.56,10.56,0,0,1,4.69-1.06,11.13,11.13,0,0,1,5.25,1.25v2.23a8.51,8.51,0,0,0-4.88-1.36,8.4,8.4,0,0,0-5.55,2,7.1,7.1,0,0,0-2.37,5.7,7,7,0,0,0,1.21,4.11,7.09,7.09,0,0,0,3,2.51,9.36,9.36,0,0,0,3.8.77,8.34,8.34,0,0,0,4.94-1.36v2.25a11.59,11.59,0,0,1-5.42,1.24A10.32,10.32,0,0,1,6.27,146a10.53,10.53,0,0,1-3.14-1.79,8.42,8.42,0,0,1-2.28-3A9.62,9.62,0,0,1,0,137.09"/><polygon points="17.79 127.61 33.16 127.61 33.16 129.74 26.6 129.74 26.6 146.28 24.36 146.28 24.36 129.74 17.79 129.74 17.79 127.61"/><path d="M37.06,127.61h6.37q7.92,0,7.92,6t-7.92,6H39.3v6.61H37.06Zm12,6a4,4,0,0,0-.44-1.94,2.92,2.92,0,0,0-1.21-1.2,5.82,5.82,0,0,0-1.72-.58,12.29,12.29,0,0,0-2.19-.18H39.3v7.78h4.24a8.19,8.19,0,0,0,4.07-.85,3.21,3.21,0,0,0,1.48-3"/><path d="M55.13,140.5a10.32,10.32,0,0,1,0-7.1,9.94,9.94,0,0,1,1.8-3.08,8.31,8.31,0,0,1,3.07-2.2,11.46,11.46,0,0,1,8.54,0,8.35,8.35,0,0,1,3.06,2.2,10,10,0,0,1,1.8,3.07,10.32,10.32,0,0,1,0,7.1,10.05,10.05,0,0,1-1.8,3.08,8.33,8.33,0,0,1-3.06,2.21,11.44,11.44,0,0,1-8.53,0,8.42,8.42,0,0,1-3.07-2.2,10.17,10.17,0,0,1-1.8-3.08m16.16-.75a8.53,8.53,0,0,0,0-5.6,7.42,7.42,0,0,0-1.36-2.4,6.11,6.11,0,0,0-2.36-1.69,9,9,0,0,0-6.61,0,6.11,6.11,0,0,0-2.36,1.69,7.64,7.64,0,0,0-1.37,2.4,8.8,8.8,0,0,0,0,5.6,7.7,7.7,0,0,0,1.37,2.39A6.18,6.18,0,0,0,61,143.83a9,9,0,0,0,6.61,0,6.12,6.12,0,0,0,2.37-1.69,7.65,7.65,0,0,0,1.35-2.39"/><polygon points="94.3 146.28 92.06 146.28 92.06 132.95 92.06 131.34 80.83 146.28 78.75 146.28 78.75 127.61 80.99 127.61 80.99 140.92 80.99 142.52 92.22 127.61 94.3 127.61 94.3 146.28"/><polygon points="98.2 127.61 113.56 127.61 113.56 129.74 107 129.74 107 146.28 104.76 146.28 104.76 129.74 98.2 129.74 98.2 127.61"/><polygon points="117.46 127.61 130.05 127.61 130.05 129.74 119.7 129.74 119.7 135.8 129.26 135.8 129.26 137.94 119.7 137.94 119.7 144.15 130.21 144.15 130.21 146.28 117.46 146.28 117.46 127.61"/><path d="M138.51,127.61H150v18.67h-2.25V129.75h-7.12a88.29,88.29,0,0,1-1.36,10.66Q138,145.93,135,146.5a4,4,0,0,1-.69.05,4.9,4.9,0,0,1-1.65-.29v-2.13a3.9,3.9,0,0,0,1.27.18,2.09,2.09,0,0,0,1.66-.9,7.17,7.17,0,0,0,1.16-2.37,27,27,0,0,0,.78-3.57c.21-1.42.4-2.83.53-4.28s.26-3,.39-4.75a1.31,1.31,0,0,1,0-.28c0-.07,0-.15,0-.25a1.62,1.62,0,0,0,0-.3"/><path d="M162.36,146.28H156V127.61h2.24v6.65h4.14q7.92,0,7.92,6t-7.92,6m-4.14-9.89v7.76h4.25a12.25,12.25,0,0,0,2.18-.17,6.15,6.15,0,0,0,1.72-.59,2.94,2.94,0,0,0,1.22-1.2,4.08,4.08,0,0,0,.43-1.94,3.17,3.17,0,0,0-1.48-3,8.28,8.28,0,0,0-4.07-.84Z"/><polygon points="188 127.61 190.24 127.61 190.24 146.28 188 146.28 188 137.99 176.92 137.99 176.92 146.28 174.68 146.28 174.68 127.61 176.92 127.61 176.92 135.85 188 135.85 188 127.61"/><path d="M196.37,146.28h-2.43l8.14-18.67h2.48l8.11,18.67h-2.39l-1.92-4.5H198.29ZM203,130.61l-3.84,9.09h8.3l-3.87-9.07c0-.09-.13-.34-.29-.72-.16.4-.26.65-.3.72"/><path d="M217.29,146.28h-2.72l5.52-7.12a6.51,6.51,0,0,1-3.43-1.92,5.23,5.23,0,0,1-1.29-3.7,5.43,5.43,0,0,1,1-3.35,5.88,5.88,0,0,1,2.64-2,9.8,9.8,0,0,1,3.56-.6h7v18.67h-2.25v-6.84h-4.82ZM219,130.69a3.66,3.66,0,0,0,0,5.68,5.84,5.84,0,0,0,3.48.95h4.88v-7.58h-4.88a5.94,5.94,0,0,0-3.48.95"/><polygon points="245.57 146.28 243.32 146.28 243.32 127.61 245.57 127.61 245.57 135.69 249.81 135.69 255.44 127.61 258 127.61 251.65 136.71 258.56 146.28 256 146.28 249.89 137.83 245.57 137.83 245.57 146.28"/><path d="M260.69,140.5a10.32,10.32,0,0,1,0-7.1,9.91,9.91,0,0,1,1.79-3.08,8.39,8.39,0,0,1,3.07-2.2,11.46,11.46,0,0,1,8.54,0,8.31,8.31,0,0,1,3.07,2.2,9.94,9.94,0,0,1,1.8,3.08,10.43,10.43,0,0,1,0,7.1,10.17,10.17,0,0,1-1.8,3.08,8.42,8.42,0,0,1-3.07,2.2,11.46,11.46,0,0,1-8.54,0,8.42,8.42,0,0,1-3.07-2.2,10.35,10.35,0,0,1-1.79-3.08m16.16-.75a8.66,8.66,0,0,0,0-5.6,7.42,7.42,0,0,0-1.36-2.4,6.22,6.22,0,0,0-2.36-1.69,9,9,0,0,0-6.61,0,6.07,6.07,0,0,0-2.37,1.69,7.81,7.81,0,0,0-1.36,2.4,8.66,8.66,0,0,0,0,5.6,7.88,7.88,0,0,0,1.36,2.39,6,6,0,0,0,2.37,1.69,9,9,0,0,0,6.61,0,6.22,6.22,0,0,0,2.36-1.69,7.48,7.48,0,0,0,1.36-2.39"/><polygon points="301.64 127.61 303.56 127.61 303.56 146.28 301.32 146.28 301.32 131.85 294.62 141.88 293.24 141.88 286.54 131.85 286.54 146.28 284.3 146.28 284.3 127.61 286.22 127.61 293.93 139.13 301.64 127.61"/><polygon points="311.78 146.28 309.54 146.28 309.54 127.61 324.77 127.61 324.77 146.28 322.53 146.28 322.53 129.74 311.78 129.74 311.78 146.28"/><path d="M330.91,146.28h-2.43l8.14-18.67h2.47l8.11,18.67h-2.39l-1.91-4.5H332.84Zm6.64-15.67-3.84,9.09H342l-3.87-9.07c0-.09-.13-.33-.29-.72l-.29.72"/><polygon points="364.26 127.61 366.5 127.61 366.5 146.28 364.26 146.28 364.26 137.99 353.18 137.99 353.18 146.28 350.94 146.28 350.94 127.61 353.18 127.61 353.18 135.85 364.26 135.85 364.26 127.61"/><polygon points="388.02 146.28 385.78 146.28 385.78 132.95 385.78 131.34 374.55 146.28 372.47 146.28 372.47 127.61 374.71 127.61 374.71 140.92 374.71 142.52 385.94 127.61 388.02 127.61 388.02 146.28"/><path d="M395,146.28h-2.72l5.52-7.12a6.48,6.48,0,0,1-3.42-1.92,5.24,5.24,0,0,1-1.31-3.7,5.38,5.38,0,0,1,1-3.35,5.85,5.85,0,0,1,2.63-2,10.05,10.05,0,0,1,3.56-.6h7v18.67h-2.24v-6.84h-4.82Zm1.74-15.59a3.68,3.68,0,0,0,0,5.68,5.88,5.88,0,0,0,3.49.95h4.88v-7.58h-4.88a6,6,0,0,0-3.49.95"/><path d="M143.1,49.28l-20.24,58.43h8.19l5.72-16.51a38.62,38.62,0,0,0,6.5-1.6,27.9,27.9,0,0,1,8.61-1.66,30.69,30.69,0,0,1,9.2,1.74,44.3,44.3,0,0,0,6,1.49l5.73,16.53H181L160.75,49.26Zm19.2,32.93a33.48,33.48,0,0,0-10.42-2A31.18,31.18,0,0,0,142,82.13c-.79.24-1.56.49-2.33.71l8.88-25.61h6.77l8.78,25.52-1.79-.54"/><path d="M210.81,49.28H187.29v58.43h7.87V88.82h15.66c13.37,0,21-7.25,21-19.9,0-12.3-7.87-19.65-21-19.65m0,31.77H195.16v-24h15.66c6,0,13.24,2,13.24,11.79,0,8.21-4.33,12.19-13.24,12.19"/><rect x="341.86" y="49.28" width="7.79" height="58.44"/><path d="M318.05,66H303.72V49.28h-7.87v58.43h22.2c11.61,0,20-8.78,20-20.87,0-12.49-8.05-20.88-20-20.88m0,34H303.72V73.6h14.33c7.16,0,12.16,5.41,12.16,13.17S325.2,100,318.05,100"/><polygon points="399.57 49.28 399.57 73.67 369.51 73.67 369.51 49.28 361.64 49.28 361.64 107.72 369.51 107.72 369.51 81.62 399.57 81.62 399.57 107.72 407.36 107.72 407.36 49.28 399.57 49.28"/><path d="M276.07,82.17H257.88c-.41,0-.81,0-1.15,0-6.56-.49-11-6.58-11-15.15V49.37H238V67c0,13.28,7.92,22.91,18.85,22.91a3.15,3.15,0,0,0,.51,0l.77,0h18v17.81h7.79V49.36h-7.79Z"/><polygon points="399.57 49.28 399.57 73.67 369.51 73.67 369.51 49.28 361.64 49.28 361.64 107.72 369.51 107.72 369.51 81.62 399.57 81.62 399.57 107.72 407.36 107.72 407.36 49.28 399.57 49.28"/><path d="M0,42.53H0"/><path d="M0,42.54H0l.77,0-.77,0"/><path d="M2.22,40.76,0,42.52l2.21-1.76"/><path d="M15.23,30.51l-4.94,3.9,4.94-3.9"/><path d="M26,22.05h0l-3.49,2.76L26,22.06"/><path d="M36.41,13.88h0c-.34.27-.67.54-1,.8.35-.26.68-.53,1-.8"/><path d="M31.81,17.5l-.93.73.93-.73"/><path d="M46.81,5.7h0L42.38,9.18,46.81,5.7"/><path d="M57.1,1.93h0l-2-1.58,2,1.58"/><path d="M54.37,0a.88.88,0,0,1,.35.1.88.88,0,0,0-.35-.1"/><path d="M66.48,9.34l-4.7-3.71,4.7,3.71"/><path d="M75.82,16.69l.86.68-.86-.68"/><path d="M77.11,17.7l.46.37-.46-.37"/><path d="M75.82,16.69l-3.64-2.86,3.64,2.86"/><path d="M76.75,17.42l.26.2-.26-.2"/><path d="M98.31,34.36h0L93,30.19l5.32,4.17"/><path d="M108.58,42.34h0a0,0,0,0,1,0,0,0,0,0,0,0,0,0"/><path d="M108.46,42.58a1.59,1.59,0,0,1,.13-.22,2.53,2.53,0,0,0-.13.22"/><path d="M108.15,42.11l-4.73-3.73,4.73,3.73"/><path d="M82.58,22a1.09,1.09,0,0,0-.17-.13,1.09,1.09,0,0,1,.17.13"/><path d="M5.17,38.44h0L2.22,40.77l2.95-2.33"/><polygon points="15.6 30.23 15.6 30.23 15.24 30.51 15.6 30.23"/><path d="M22.52,24.81c-.66.5-1.29,1-1.94,1.52l1.94-1.52"/><path d="M35.4,14.68,33.69,16,31.81,17.5,33.69,16l1.71-1.34"/><path d="M42.38,9.18l-1.19.94,1.19-.94"/><path d="M53.61.32A1.07,1.07,0,0,1,54.37,0a1.07,1.07,0,0,0-.76.32L51.5,2,53.61.32"/><path d="M67.4,10.07h0l-.92-.73.92.73"/><path d="M77,17.63l.1.08-.1-.08"/><path d="M76.68,17.37l.07.05-.07-.05"/><path d="M77.71,18.18h0l-.14-.11.14.11"/><path d="M88,26.28h0L82.57,22,88,26.28"/><path d="M108.57,42.33a2.1,2.1,0,0,1-.42-.22,2.1,2.1,0,0,0,.42.22"/><path d="M0,42.53H0Z"/><path d="M0,42.53H0l.76,0H5l.15-4.15L2.22,40.77C1.53,41.3.85,41.85,0,42.53"/><path d="M10.29,34.41l2.52,73.87h.13l2.66-78-.37.28-4.94,3.9"/><path d="M20.58,26.32l2.59,82h.11L26,22.05l-3.48,2.76-1.94,1.52"/><path d="M33.69,16,31.81,17.5l-.93.73,2.65,90.05h.11l2.78-94.4-1,.8L33.69,16"/><path d="M41.19,10.12l2.7,98.16H44L46.81,5.7,42.38,9.18c-.39.32-.79.63-1.19.94"/><path d="M54.72.1a1.08,1.08,0,0,0-.35-.1,1,1,0,0,0-.76.32L51.5,2l2.75,106.27h.1L57.1,1.93l-2-1.58A1.85,1.85,0,0,0,54.72.1"/><path d="M61.78,5.63,64.6,108.29h.11L67.4,10.07l-.92-.73-4.7-3.71"/><path d="M77.11,17.7l-.1-.08-.26-.2-.07-.05-.86-.68-3.64-2.86L75,108.29h.11l2.64-90.11-.14-.11-.46-.37"/><path d="M85.3,108.29h.12l2.59-82L82.57,22Z"/><path d="M95.66,108.3h.13l2.52-73.94L93,30.19Z"/><path d="M108.58,42.36v0h0a2.1,2.1,0,0,1-.42-.22q-2.37-1.86-4.73-3.73l.15,4.21h4.88c0-.08.09-.15.13-.22"/></g></g></g></g></svg>