<svg xmlns="http://www.w3.org/2000/svg" viewBox="0 0 497.91 248.9"><defs><style>.cls-1{fill:#1a1a18;fill-rule:evenodd;}</style></defs><g id="Слой_2" data-name="Слой 2"><g id="Слой_1-2" data-name="Слой 1"><path class="cls-1" d="M217.54,79.41c10.55-2.85,19.11-13.71,19.11-24.26s-8.56-16.8-19.11-14-19.1,13.71-19.1,24.26S207,82.25,217.54,79.41Z"/><path class="cls-1" d="M480.23,112.32c-16-16.09-41.46-25.68-60.92-35.87-7.52-2.72-17-9-19.09-16.55-1.46-5.32,1.39-11.79,8.09-16s15.82-7.5,24.15-7.47c7.83,0,15.14,3,17.26,8.37,3.07,7.72-2.12,20.86-14.91,19.79C435,90.5,479,85.45,478.58,53.13a29.51,29.51,0,0,0-1.06-7.4C472.65,28,449.09,18,414.85,28.46c-20.33,6.18-38.44,19.89-44.45,38.1V0L322.63,26.36v8.51c6.24-2.86,9.55,2.81,9.55,9v79.57a16.45,16.45,0,0,1-14.33,15.94,12.57,12.57,0,0,1-14.33-12.73V18L255.76,44.38v8.5c6.24-2.85,9.55,2.82,9.55,9v79.56A16.46,16.46,0,0,1,251,157.39a12.57,12.57,0,0,1-14.33-12.73V77.15l-47.77,26.37V112c6.24-2.85,9.55,2.81,9.55,9v38.44A16.44,16.44,0,0,1,184.1,175.4a12.56,12.56,0,0,1-14.33-12.72V72c0-4.77,4.38-10.73,9.56-12.12V51.48l-9.56,2.57-38.21,10.3L122,66.92v8.36a7.3,7.3,0,0,1,9.55,7v44.31A93.93,93.93,0,0,0,102.9,114.5V90c0-4.78,4.37-10.73,9.55-12.13V69.49l-9.55,2.58L64.68,82.36l-9.55,2.58V93.3a7.3,7.3,0,0,1,9.55,7v15a92.39,92.39,0,0,0-10,3.25c-11.08,4.29-24.24,11.33-34.27,21.72-20,20.71-26.22,43.1-14.5,57.68,21.23,24,59.58-5.7,38-36.73-3.32,22.62-32.92,19.51-18.43-9.63,3.36-6.74,10-15.47,22.14-22.59a43.22,43.22,0,0,1,17.1-5.6V198.2c0,4.78-4.37,10.73-9.55,12.13v8.36l9.55-2.58,38.22-10.29,9.55-2.58v-8.36a7.3,7.3,0,0,1-9.55-7V132.72c21.47,12.93,35.67,36.5,24.42,56.36h0a12.32,12.32,0,0,1-5.34,3.24v8.36l9.55-2.57L169.21,188l27.91-7.52h0l1.31-.35,38.22-10.3,9.55-2.57,9.56-2.57h0l4.29-1.16,4.16-1.12h0l1.1-.3,38.21-10.29,9.56-2.58h0l9.55-2.57,8.09-2.18,1.46-.39,38.22-10.3,9.55-2.57v-6.05c-5.17,1.4-9.55-4.52-9.55-9.29V93.52a24.85,24.85,0,0,0,6.3,10.73c11.93,11.11,34.44,17.72,49.79,23.67,13.17,5.1,30.95,16.15,36.3,31.9,8.17,24-.07,38.52-13.76,52.93-31.69,33.35-97.53,39.24-119,11.3-16.84-21.94-10.68-50.24,20-60.53,9-3,20.53-3.22,23.92,5.93s-2.61,22.93-20.45,23.82c-1.7,14.26,15.88,19.32,28.9,15.95,29.82-7.73,39.23-58.22-10.46-60.63-73.26-3.54-95.26,99.09,4.9,100.3C464,250,531.32,163.75,480.23,112.32Z"/></g></g></svg>