<svg xmlns="http://www.w3.org/2000/svg" viewBox="0 0 387.09 78.75"><g id="Слой_2" data-name="Слой 2"><g id="Слой_1-2" data-name="Слой 1"><rect x="142.28" y="12.97" width="20.59" height="52.81"/><path d="M201.07,28.45c7.08,0,12.93,1.22,14.86,6.41H237c-1.3-17.8-16.94-23.15-36-23.19-19.8.08-36.15,5.82-36.07,25.78V41.3c-.08,20,16.27,25.74,36.07,25.78,19,0,34.66-5.34,36-23.18h-21.1c-1.89,5.18-7.78,6.44-14.86,6.44-8.4-.12-15.56-1.69-15.44-10.29v-1.3C185.51,30.06,192.67,28.57,201.07,28.45Z"/><path d="M275.32,11.67c-19.88,0-36.15,5.78-36.07,25.78V41.3c-.08,20,16.19,25.74,36.07,25.78s36.11-5.82,36-25.78V37.45C311.35,17.49,295.21,11.67,275.32,11.67ZM290.77,40c.11,8.64-7,10.21-15.45,10.33-8.45-.12-15.6-1.69-15.48-10.33v-1.3c-.12-8.61,7-10.18,15.48-10.3,8.41.12,15.56,1.69,15.45,10.3Z"/><polygon points="366.46 40.95 343.28 12.97 314.95 12.97 314.95 65.78 335.54 65.78 335.54 33.52 363.9 65.78 387.09 65.78 387.09 12.97 366.46 12.97 366.46 40.95"/><path d="M118.36,13a65.53,65.53,0,0,0-43.52,16.5A52.31,52.31,0,0,1,65.78,0H52.58a52.24,52.24,0,0,1-9.06,29.47A65.51,65.51,0,0,0,0,13v13.2A52.35,52.35,0,0,1,34.79,39.38,52.39,52.39,0,0,1,0,52.58v13.2a65.51,65.51,0,0,0,43.52-16.5,52.24,52.24,0,0,1,9.06,29.47h13.2a52.31,52.31,0,0,1,9.06-29.47,65.53,65.53,0,0,0,43.52,16.5V52.58a52.39,52.39,0,0,1-34.79-13.2,52.35,52.35,0,0,1,34.79-13.21ZM52.66,39.38A64.88,64.88,0,0,0,59.18,28.7,65.57,65.57,0,0,0,65.7,39.38a65.91,65.91,0,0,0-6.52,10.67A65.21,65.21,0,0,0,52.66,39.38Z"/></g></g></svg>