<svg xmlns="http://www.w3.org/2000/svg" viewBox="0 0 320 144.62"><g id="Слой_2" data-name="Слой 2"><g id="Слой_1-2" data-name="Слой 1"><path d="M0,67.41V15.34H13.06V37.1h4.58l14.5-21.76H47.72l-18.56,26,18.56,26H30.39L18.93,50.16H13.06V67.41Z"/><path d="M56.7,67.41l.15-52.07H69.91l-.08,29.32,26-29.32,13,.08v52h-13l.07-29.16L69.91,67.41l-.08-.15v.15Z"/><path d="M162.64,15.34v13H145.46V67.41H132.25V28.32H114.92v-13Z"/><path d="M168.59,15.34h52.23V67.41H207.61V58.78H181.73v8.55H168.59Zm39,30.31V28.32H181.73V45.65Z"/><path d="M231.55,15.34h13.06l-.08,29.32,26-29.32,13,.08v52H270.49l.08-29.16-26,29.16-.08-.08v.08H231.4Zm17.18-5V6l17.33-4.35v8.7Z"/><path d="M34.81,85.53v13H13.06v39H0V85.53Z"/><path d="M43.17,85.53H95.39v52.06H43.25v-.07h-.08Zm39,39v-26h-26v26Z"/><path d="M106,85.53h52.14V129H119v8.62H106Zm39,30.38V98.58H119v17.33Z"/><path d="M168.6,85.53h52.22v52.06H168.68v-.07h-.08Zm39,39v-26h-26v26Z"/><path d="M229.37,144.62V124.54h4.5L240.29,86v-.45h43.36v39h3.82v20.08H274.41v-7h-32v7Zm17.71-20.08h23.59v-26H251.74Z"/><path d="M307.24,28.15A12.77,12.77,0,1,1,320,15.38,12.78,12.78,0,0,1,307.24,28.15Zm0-24.11a11.35,11.35,0,1,0,11.34,11.34A11.35,11.35,0,0,0,307.24,4Z"/><path d="M303.38,30.77h-.09a.71.71,0,0,1-.62-.79L306.49.62a.69.69,0,0,1,.79-.61.7.7,0,0,1,.61.79l-3.81,29.35A.71.71,0,0,1,303.38,30.77Z"/><path d="M311.1,30.77a.7.7,0,0,1-.7-.62L306.58.8A.71.71,0,0,1,308,.62L311.8,30a.7.7,0,0,1-.61.79Z"/></g></g></svg>