<svg xmlns="http://www.w3.org/2000/svg" viewBox="0 0 222.34 177.11"><g id="Слой_2" data-name="Слой 2"><g id="Слой_1-2" data-name="Слой 1"><path d="M201.11,56v73.88H191.8V47.44c6.79,0,13.6-.4,20.35.13,5.24.41,10.12,6.87,10.13,11.92.08,23,0,46.05,0,69.08,0,.43,0,.87-.08,1.4h-9v-2.61c0-21.75-.06-43.5.07-65.24,0-3.64-2.53-6.51-6.18-6.14C205.25,56.17,203.29,56,201.11,56Zm14.1,35.47c.08,2.12,1.68,2.63,3.28,3.61-.09-.61-.26-1-.16-1.2a7.42,7.42,0,0,1,.84-1.2,14.85,14.85,0,0,1-1.87-.3A19.56,19.56,0,0,1,215.21,91.48Z"/><path d="M9.15,130H.27c-.67-4.52.32-8.92-.07-13.36s-.09-9.18-.09-13.77V47.14h9v2.41c0,10.23,0,20.47,0,30.7,0,1.88.55,2.62,2.44,2.43a18.86,18.86,0,0,1,3.83,0c4.91.5,6.37-2.6,6.4-6.46,0-8.95,0-17.91,0-26.86V47c2.68,0,5.28-.07,7.87.07.41,0,1.11,1,1.12,1.52.06,10.23.19,20.47-.07,30.7-.06,2.09-1.47,4.24-2.56,6.19-.65,1.15-1.08,2-.19,3.14a14.51,14.51,0,0,1,2.91,9.52c-.12,10.53,0,21.06,0,31.77h-9v-2.35c0-9.71,0-19.42,0-29.12a10.2,10.2,0,0,0-.85-3.83,3.56,3.56,0,0,0-3.79-2.49,33.82,33.82,0,0,1-5.42,0c-1.95-.16-2.6.49-2.58,2.52.09,10.91,0,21.82,0,32.73Zm-3.48-20.3c.2,2.76-1.11,3-3,2.8.78.72,1.91,1.48,2.36,1.19C6.17,113,7.24,111.85,5.67,109.67ZM19.15,86.48c-.92,2.44-.14,3.22,3.43,3.4Z"/><path d="M113.47,93.59h9v32.67c0,2.91,0,2.91,3,2.91h9.62v-6.48c0-9,0-17.91,0-26.86,0-1.72.41-2.52,2.27-2.37s3.46.05,5.19,0,2,1.15,2,2.37c0,1.55-.35,3.09-.36,4.64q0,36.23,0,72.45a8.58,8.58,0,0,0,0,2c.44,1.73-.47,2.09-1.89,2.07a41.63,41.63,0,0,0-4.74,0c-2.1.21-2.49-.74-2.47-2.62.07-11.06,0-22.12,0-33.18,0-2.49.33-3.53-3.24-2.74a23.45,23.45,0,0,1-6.75.08c-2.13-.15-2.7.76-2.69,2.71.05,10.38,0,20.76,0,31.14V177c-2.57,0-5,.06-7.47,0-1.27,0-1.65-.89-1.59-2.15.21-4.4.44-8.81.43-13.21,0-5-.3-10-.39-15-.07-4,0-7.94,0-11.91V93.59ZM137.19,126c1.1,3.32.84,5.62-2.23,6.85h2.67l1.3-1.83,1.17,2.16c.34-1.67.54-2.68.78-3.89ZM140,114.69l1.67,2-.81-3.6h-4.14l.47,2.22ZM139.53,158c.28-1.15.6-2.49.92-3.85a9.66,9.66,0,0,0-2.21.89c-.58.44-1.49,1.09-.67,2A6.52,6.52,0,0,0,139.53,158Zm3.23-32.7-.38-.42-1.82.47c.14,1.9.13,3.74,3.12,4.37L141.57,127Zm-5.34-3.93,3,.5a11.44,11.44,0,0,0,.56-1.71,1.1,1.1,0,0,0-.47-.82c-.14-.1-.55.07-.77.23C139,120.06,138.32,120.64,137.42,121.34Z"/><path d="M187,63.74l-9.25,5.08V56c-3.8,0-7.31-.06-10.82.07a2.1,2.1,0,0,0-1.4,1.46c-.09,8.27-.06,16.53-.06,25.05h9.35v9l-9.36.75c0,3.85.06,7.67,0,11.48-.09,5.16-.34,10.31-.31,15.47,0,.59,1.29,1.64,2,1.68,3.37.18,6.76.08,10.44.08V102.61c2.59,2.69,5,4.55,8.32,5a1.84,1.84,0,0,1,1.16,1.32c.07,7,.05,14,.05,21.05H156.55V47.14H187Zm-25.1,26.15c-1.18-.33-2.63-.85-2.22,1.18H164c-.26-2,.11-3.56,2.07-4.27l-2.18-.13c.15-1.76-.5-2-3.11-1.31C162,86.67,163.67,87.87,161.85,89.89Zm-1.4,37.59,4.26-2.68a27.43,27.43,0,0,1-4.17-.52c-.19-.06,0-1.42,0-2.17l-.41-.26-1.17,2.75Zm22.29-4.15c-.06-.55.06-1.42-.23-1.58a11.68,11.68,0,0,0-3.59-1.47c-.34-.07-.92,1.14-1.4,1.77A4.4,4.4,0,0,1,182.74,123.33Z"/><path d="M99.92,150.49c2.53,1.24,4.92,2.33,7.2,3.59a2.72,2.72,0,0,1,1.33,1.86c.1,6.4,0,12.79.08,19.19,0,1.5-.56,2-2,1.93-3.66-.19-7.32-.45-11-.43-5.08,0-10.16.25-15.23.43-1.67.06-2.43-.17-2.41-2.33.08-16.3-.07-32.6-.1-48.91,0-1.81.39-3.62.41-5.43,0-5,.06-9.93,0-14.89,0-3.32-.25-6.64-.43-10-.07-1.36.29-2.08,1.86-2.07,9.33,0,18.66,0,28,0a5.1,5.1,0,0,1,.87.18c0,5.46,0,10.93-.05,16.4a2.09,2.09,0,0,1-1.12,1.36c-2.39,1.19-4.84,2.26-7.42,3.43v-7.65c0-1,0-2,0-2.93a1.66,1.66,0,0,0-2-1.8c-2.94.09-5.87,0-8.81,0-1.76,0-2.28.86-1.95,2.51a11.89,11.89,0,0,1,.1,2.24c0,19.19,0,38.38,0,57.57,0,2.22.66,2.91,2.82,2.76a69.54,69.54,0,0,1,7.22,0c1.91.07,2.71-.69,2.68-2.64C99.88,160.07,99.92,155.19,99.92,150.49ZM83.72,99.74l-.18-2.28L82,98.27l-.35-2.41c-.7,1.41-1.15,2.33-1.69,3.4Zm2,70c.18-.87.18-.87-3.91-3a6.4,6.4,0,0,0,1.82,1.7C84.25,168.9,85,169.29,85.68,169.73Z"/><path d="M78.61,83.56C77,77.06,79.7,71.8,82,66.42c3.94-9,7.73-18.13,11.59-27.19A65.69,65.69,0,0,1,96.84,32c2.52-4.33,3.14-8.91,3.19-13.87C100.1,11,98.39,9,91.35,9.48c-1.26.08-2.53,0-4,0V27.81A21.91,21.91,0,0,0,85,25.54c-1.33-.9-2.74-2.31-4.15-2.34-2.6-.06-2.66-1.29-2.63-3.24.08-5.87.09-11.74,0-17.61,0-1.8.71-2.41,2.35-2.35,3.88.16,7.77.51,11.64.38,2.66-.08,5.18-.14,7.71.92,4.72,2,8,5.34,8.48,10.37a96.92,96.92,0,0,1,0,15.8c-.14,2.17-1.45,4.28-2.35,6.37Q98.21,52.1,90.33,70.32c-.46,1.07-.87,2.17-1.52,3.78,1.66.16,3.06.4,4.46.41,6.65,0,6.65,0,6.65-6.57V62.09c2.65,1.18,5.36,2.29,8,3.62a2.62,2.62,0,0,1,1,2c.09,4.66,0,9.32.06,14,0,1.14-.24,1.86-1.6,1.86C97.75,83.55,88.14,83.56,78.61,83.56Zm26-4.11-2.13-4.38-1.12.6L102.84,79Z"/><path d="M135.15,40.23l9,4.85V83.55c-2.56,0-5.09,0-7.62,0-1.48,0-1.34-1.11-1.34-2.09,0-5.65-.09-11.31,0-16.95.05-2.11-.58-2.73-2.68-2.67-5.48.13-11-.06-16.46.09-2.17.06-2.53-.72-2.66-2.71-.29-4.45,1.34-8.46,2.53-12.53,3.12-10.71,6.53-21.33,9.83-32,1.34-4.34,2.64-8.69,4.06-13A2.17,2.17,0,0,1,131.35.51c2.7-.12,5.4,0,8.46,0-.91,3-1.73,5.75-2.58,8.51q-3.3,10.62-6.61,21.24c-2.16,6.93-4.35,13.86-6.48,20.8-.16.54-.17,1.51.14,1.72a3.59,3.59,0,0,0,2,.25c2.17,0,4.34-.21,6.5-.1,1.89.1,2.51-.55,2.44-2.43C135.06,46.92,135.15,43.38,135.15,40.23ZM117.91,54.08c0,3.13,1.82,4.19,4.28,4.59l.69-2.14-3.28-3.1ZM136,60.35l.66.28,1.33-2.4-.37-.7-3.33.59.22.84,2.16-.65Z"/><path d="M79.9,56.07H69.74v74c-2.87,0-5.62.06-8.36-.06-.41,0-1-.83-1.13-1.37a6.7,6.7,0,0,1-.07-2V56c-3,0-5.83-.08-8.66,0-1.67.06-2.32-.51-2.2-2.2a48.27,48.27,0,0,0,0-5c0-1.3.35-1.93,1.78-1.92,9.54,0,19.08,0,28.79,0Zm-13.85-3,1.69,1.79,3.14-1.76c-.81-.7-2.48.51-2.69-1.54,0-.46-2.1-.73-3.5-1.17-.49,1.58-1.07,3.43-1.59,5.12l2.28.62Z"/><path d="M44.63,47V129.9H35.79c0-.75,0-1.54,0-2.33-.15-7-.33-14-.42-20.95,0-1.39.42-2.8.39-4.19-.06-3.44-.4-6.87-.39-10.3,0-4.65.32-9.3.39-13.95,0-1.39-.39-2.8-.4-4.2,0-8.06,0-16.13,0-24.19,0-2,.5-3.06,2.78-2.86S42.42,47,44.63,47Z"/><path d="M69.47,29.12v9.42c-2.43-.18-4.85-.46-7.27-.5-2,0-3.9.36-5.85.33-5.47-.08-10.93-.3-16.39-.39-1.24,0-2.49.39-3.74.4q-16.59,0-33.19,0c-2.91,0-2.91,0-2.92-3V29.12Z"/><path d="M.2,148V139.3H69.32V148Z"/><path d="M156.48,38.33V29h65.84c0,2.71.09,5.33-.09,7.93,0,.52-1.09,1.35-1.7,1.37-3.92.13-7.85.07-11.77.07H158C157.55,38.39,157.1,38.36,156.48,38.33ZM157,36.6c3.43-2.08,3.47-2.23,1.23-4.6Z"/><path d="M156.48,148v-8.75h65.65V148Zm.54-1.75c2.09.26,2.21-1.88,3.48-2.95a5.13,5.13,0,0,1-1.29-.14,9.55,9.55,0,0,1-1.25-.77,12.3,12.3,0,0,1-.22,1.71C157.59,144.72,157.33,145.33,157,146.23Z"/></g></g></svg>