<svg xmlns="http://www.w3.org/2000/svg" viewBox="0 0 240.97 240.97"><g id="Слой_2" data-name="Слой 2"><g id="Слой_1-2" data-name="Слой 1"><path d="M0,124.14v-7.31a2,2,0,0,0,.29-.61c.42-4.58.53-9.22,1.3-13.73A177.12,177.12,0,0,1,5.51,85a93.6,93.6,0,0,1,7.9-19.37,105,105,0,0,1,5.28-9.46c2.93-4.32,6.21-8.4,9.37-12.56A83.89,83.89,0,0,1,42.68,28.74c4.7-3.73,9.58-7.25,14.56-10.58a73.44,73.44,0,0,1,10.61-5.92C73.12,9.86,78.52,7.7,84,5.83A123.44,123.44,0,0,1,96.33,2.67a89.8,89.8,0,0,1,19-2.38A9,9,0,0,0,116.83,0h7.31c.51.1,1,.25,1.53.3,3.94.32,7.91.43,11.82,1a100,100,0,0,1,11.33,2.38c4.87,1.3,9.73,2.67,14.45,4.4a122,122,0,0,1,12.2,5.45,87.94,87.94,0,0,1,9.67,5.42c6.34,4.2,12.54,8.62,17.89,14.11,1.95,2,4.13,3.78,6,5.83,2.1,2.27,4,4.69,5.95,7.13A100.79,100.79,0,0,1,227.63,65.9c2.5,5.43,5,10.9,7,16.53a125.86,125.86,0,0,1,3.68,13.91,88.88,88.88,0,0,1,2.38,18.81,10.94,10.94,0,0,0,.29,1.68v7.31a2,2,0,0,0-.29.61c-.32,3.89-.43,7.81-1,11.67-.66,4.66-1.53,9.31-2.6,13.89-.8,3.45-2,6.82-3.15,10.2a111.17,111.17,0,0,1-12.54,25.54A126.38,126.38,0,0,1,208.09,203a119.86,119.86,0,0,1-14.89,13.43,103.87,103.87,0,0,1-19.55,12c-5.43,2.51-11,4.72-16.66,6.69a112.45,112.45,0,0,1-12.36,3.16,91.56,91.56,0,0,1-18.81,2.38,10.94,10.94,0,0,0-1.68.29h-7.31a13.3,13.3,0,0,0-1.53-.29c-3.94-.33-7.91-.44-11.82-1a100,100,0,0,1-11.33-2.38c-4.86-1.3-9.73-2.67-14.45-4.39a124.35,124.35,0,0,1-12.2-5.46A86.33,86.33,0,0,1,55.83,222c-6.34-4.2-12.54-8.62-17.89-14.11-1.95-2-4.13-3.78-6-5.83-2.1-2.27-4-4.69-6-7.13a100.79,100.79,0,0,1-12.63-19.89c-2.5-5.43-5-10.9-7-16.53a126.28,126.28,0,0,1-3.68-13.9A89.06,89.06,0,0,1,.29,125.82,10.94,10.94,0,0,0,0,124.14ZM56.59,37.72l-6.46-9.11c-.31.24-.5.41-.71.55-1.71,1.11-1.68,1.26-.32,2.77,2,2.26,3.93,4.6,5.76,6.75l-2.33,2.4L45.2,32.63l-3.54,3.12c2.2,2.5,4.33,4.87,6.36,7.32a1.93,1.93,0,0,1,.28,1.76,7,7,0,0,1-1.91,1.51l-7.3-8.42c-4.39,5.08-8.63,10-12.9,14.95,2.69,2,5,3.81,7.51,5.51,1.83,1.27,1.88,1.19.57,3l-.61.87-9.23-6.46-3.88,6.3c.79.43,1.44.8,2.09,1.14,2.31,1.23,4.65,2.43,6.93,3.7A1.2,1.2,0,0,1,30,68.06a17.68,17.68,0,0,1-1.15,2.25l-10-5.13-2.11,4.14,9.89,5.21A9.58,9.58,0,0,0,25.89,76c-.42,1.42-1.11,1.46-2.32.77-2.2-1.26-4.49-2.36-6.75-3.51-1.66-.84-1.88-.75-2.49.92a7,7,0,0,0-.19,1c1.7.7,3.36,1.48,5.09,2.06a4.94,4.94,0,0,1,3.52,6,53.39,53.39,0,0,1-2.46,6.71L9.9,86a124.72,124.72,0,0,0-4.51,23.18l7.68,1,.68-4.55-6.5-.94a8.22,8.22,0,0,0,1.5-2.13c.29-.92.84-.94,1.49-.85,2.35.32,4.69.7,7.26,1.09l-1.45,11a3.9,3.9,0,0,1-.68.07c-3-.37-6-.72-9-1.12-.73-.1-1.42-.2-1.43.75,0,3.54,0,7.07,0,10.82l7.84-.43v-4.63H6.31l1.57-3.26c2.14,0,4.33.08,6.5,0,1.35-.06,1.78.47,1.76,1.73,0,2.74-.09,5.48,0,8.21.05,1.41-.49,1.72-1.77,1.68-2.74-.08-5.48-.06-8.21,0-.43,0-1.19.42-1.2.67a11.1,11.1,0,0,0,.38,2.41l10.94-1.37.44,3.35L5.57,134l.61,4.65c3.37-.38,6.68-.73,10-1.15.88-.11,1.53-.06,1.48,1s.5,2.25-1.24,2.36c-.89.05-1.78.18-2.67.3-2.25.31-4.49.64-7.14,1,1.66,6.11,3.25,12,4.88,18l11.39-2.25,1.36,3.3-11.34,2.13c1.67,3.64,3.22,7,4.74,10.36,2.94-.93,5.63-1.75,8.3-2.63s2.8-.95,4,1.77c0,.07,0,.16,0,.35l-10.63,3.55,2.79,4.46c2.94-2.16,5.61-4.14,8.33-6.06.18-.13.76.08,1,.3a10,10,0,0,1,1,1.3c.47.6.33,1-.27,1.45-1.88,1.29-3.75,2.6-5.77,4l4.53,6.62-2.42,1.86c1.37,1.72,2.62,3.34,3.94,4.89a1.4,1.4,0,0,0,1.19.39c2.4-.73,4.78-1.54,7.46-2.43l-2.68-3-3.7,3a26.39,26.39,0,0,1-.56-2.72,1.92,1.92,0,0,1,.32-1.4c1.35-1.24,2.79-2.38,4.34-3.66l7.45,8.54c-2.79,3.31-7.17,3-11,4.87l13.61,12.31c.62.56,1,.28,1.4-.35,1.89-2.74,3.86-5.42,5.87-8.2l2.55,1.83a3.18,3.18,0,0,1-.25.66c-1.19,1.66-2.34,3.34-3.6,4.94-2.8,3.58-2.74,4,1.21,6.15.06,0,.16,0,.38,0,1.51-2.23,3-4.55,4.63-6.83,1.45-2.08,1.48-2.06,3.61-.65.24.16.49.3.82.5-1.93,2.74-3.79,5.44-5.72,8.09-.5.68-.58,1.07.24,1.53q4,2.24,8,4.58c.82.49,1.26.26,1.64-.5,1-1.95,2-3.88,3-5.94-1.28-.68-2.65-1.41-4.11-2.17l-3,5.83a15.58,15.58,0,0,0-1.65-2.26,1.27,1.27,0,0,1-.23-1.84c.5-.86,1-1.72,1.47-2.6.64-1.22,1.26-2.46,1.93-3.78,3.22,1.68,6.29,3.31,9.38,4.87.92.47.56,1,.26,1.6-1.52,2.89-3.05,5.77-4.59,8.69a9.57,9.57,0,0,0,1.9.94,1.46,1.46,0,0,0,1.27-.47,19.92,19.92,0,0,0,1.12-2.74c.87-2.24,1.74-4.48,2.65-6.84l3.11,1.37c-1.27,3.21-2.5,6.24-3.65,9.29-.13.37,0,1.19.28,1.3,1.21.54,2.49.91,3.76,1.34l4-10.46a5.78,5.78,0,0,0,1.37.64c1.52.22,1.71,1,1.2,2.31-1,2.57-2,5.17-3,7.75-.28.7-.31,1.05.57,1.25,1.83.43,3.62,1,5.44,1.46,1.58.39,3.18.68,4.86,1,.29-1.3.51-2.46.81-3.6,1-3.81,1-3.81-2.71-4.76l-.92-.3-1.51,6.38c-.83-.69-1.61-1.29-2.31-2a1.43,1.43,0,0,1-.5-1c.44-2.18.93-4.36,1.52-6.51a1.45,1.45,0,0,1,1.21-.68c3.2.63,6.39,1.35,9.57,2.11.23.06.52.71.46,1-.35,1.74-.82,3.47-1.2,5.21s-.66,3.23-1,4.85l7.28,1.11c.13-1,.3-1.79.34-2.62.13-2.46.21-4.93.32-7.39,0-.75.19-1.46,1.2-1.3.78.12,1.55.29,2.48.47-.25,3.61-.5,7.25-.77,11.13h6.48c.16-3.61-.16-7.29.2-11,.76,0,1.22,0,1.66,0,1.24-.14,1.67.15,1.59,1.6-.2,3.17-.06,6.36-.06,9.56h2.84c-.23-2.55-.31-5-.71-7.41-.54-3.22-.11-3.87,3-3.71.09,0,.17.09.33.18.11,1.65.21,3.35.34,5s.28,3.49.49,5.23c0,.27.4.73.59.72,1.33-.08,2.65-.26,4.08-.42,0-.56,0-1.11,0-1.65-.19-2.4-.46-4.79-.59-7.19-.14-2.74-.09-2.74,3.08-2.43.31,3.56.63,7.17.95,10.94,8.06-1.42,16-2.71,23.55-5.72-1.33-3.47-2.64-6.87-4-10.35l3-1.21c1.42,3.47,2.81,6.84,4.27,10.38,1.92-.81,3.7-1.53,5.44-2.35.32-.15.72-.84.62-1.07-.64-1.39-1.42-2.71-2.12-4.07-.88-1.7-1.72-3.42-2.62-5.2l3-1.46,5.2,9.91,4.15-2.11c-1.24-2.45-2.38-4.91-3.71-7.27-1.59-2.8-1.66-2.76,1.07-4a4.75,4.75,0,0,1,.47-.14l5.22,9.83,9.45-6.29c-1.41-2.1-2.66-3.89-3.83-5.72-.44-.68-.79-.78-1.44-.27-.92.72-1.91,1.37-3,2.16l3.66,5.47-3.83.38-4.65-6.66c3.19-2.21,6.28-4.36,9.37-6.49l6.51,9.1,8.32-7.11c-2.25-2.66-4.38-5.23-6.59-7.74-.56-.64-.73-1,.1-1.45.38-.21.61-.75,1-.91s1.11-.26,1.35,0a31,31,0,0,1,2,2.4c1.5,1.72,3,3.43,4.64,5.27l7.78-8.43-6-5.22c-.9,1.05-1.67,2-2.46,2.88-.45.51-.49.76.16,1.28,1.45,1.16,2.75,2.52,4.12,3.82L202,198l-5.88-5.27c1-1.11,1.82-2.1,2.69-3.06a58.75,58.75,0,0,0,4-4.48c.75-1,1.11-.79,1.84-.14,2.4,2.15,4.84,4.24,7.3,6.38l2.09-2.86c-.5-.36-.82-.6-1.15-.81-2.34-1.49-4.64-3.07-7.06-4.45-1.61-.92-.31-1.72,0-2.45s1-1.17,1.87-.39a20.07,20.07,0,0,0,2.49,1.62l6,3.72c.85-1.43,1.6-2.67,2.38-4l-9.38-6c.59-1,1.09-1.81,1.7-2.84l9.74,6.17c2.82-5.9,5.6-11.73,8.48-17.74l-10.88-3.78c.35-1,.67-2,1-3a4.4,4.4,0,0,1,.95.1c3,1,5.91,2,8.84,3.06.75.27,1.1.17,1.32-.61.57-1.92,1.19-3.83,1.81-5.81l-10.91-2.64c.2-.83.42-1.6.56-2.37s.32-.9,1.11-.64c1.55.5,3.16.84,4.75,1.19s3.48.69,5.3,1l.92-4.57L223,140.82c.86-3.14.86-3.14,3.71-2.68a5.43,5.43,0,0,1,.58.13l7.4,1.73c.47-3.92.91-7.7,1.36-11.5-2.61-.23-4.79-.47-7-.57a1.52,1.52,0,0,0-1.08.94c-.17.83.13,1.78-.12,2.56-.37,1.12.13,1.18,1,1.23,1.82.12,3.63.3,5.42.45a15.87,15.87,0,0,0-1.41,2.28,1.34,1.34,0,0,1-1.61.92l-7.14-.6c.32-3.93.63-7.71.94-11.49l11,.87a109.24,109.24,0,0,0-1.17-22.42,1.19,1.19,0,0,0-.92-.7c-1.14.07-2.26.32-3.39.46-2,.25-4,.52-5.94.67a1.47,1.47,0,0,1-1.2-.72,12.48,12.48,0,0,1-.28-2.53l11-1.47c-.85-3.69-1.69-7.35-2.57-11.19l-7.59,2c.47,2.27.91,4.39,1.34,6.51.08-.39.17-.93.31-1.45.08-.29.2-.75.39-.8,1.8-.47,3.62-.87,5.34-1.26a10.25,10.25,0,0,0-.34,2.22c.08,1.06-.47,1.44-1.32,1.69-1.95.58-3.87,1.22-5.84,1.7a1.51,1.51,0,0,1-1.3-.69c-1-3.26-1.9-6.55-2.89-10l10.75-3.25-4-10.33c-2,.81-3.62,1.57-5.33,2.21-1.89.71-2,.87-1.19,2.76.17.41.43.79.58,1.2.35.92.84,1,1.75.63,1.59-.72,3.25-1.29,4.84-1.9-.13,1-.17,1.93-.36,2.77-.11.46-.37,1.09-.74,1.25-2.26,1-4.57,1.87-7,2.83l-4.18-10.66L225,70.5l-5.47-10-6.88,3.92c.8,1.46,1.55,2.86,2.28,4.2l5.8-3.42V69l-7,4.09c-1.89-3.35-3.74-6.62-5.66-10l9.71-5.55-2.18-2.87L207,61.45l-7-9c2-1.63,4-3.23,6-4.79a1,1,0,0,1,.82-.1c.9.42,1.77.91,2.87,1.48L204.45,53l3.17,3.6c1.76-1.35,3.5-2.61,5.13-4a1.64,1.64,0,0,0,.16-1.59,75.4,75.4,0,0,0-4.94-6.2c-3.06-3.32-6.24-6.55-9.44-9.75-1.15-1.15-2.48-2.13-3.82-3.26l-7,8.72-2.52-2.14L192,29.51C191,28.71,190,28,189,27.25c-2.6-1.78-2.61-1.77-4.29.8l-4.32,6.66a14.12,14.12,0,0,0-1.74-1.05c-1.29-.53-1-1.26-.38-2.11,1.77-2.62,3.52-5.26,5.36-8-1.2-.78-2.29-1.55-3.46-2.18a1.23,1.23,0,0,0-1.13.41c-.87,1.26-1.63,2.59-2.44,3.88-1,1.62-2.06,3.23-3.06,4.79-.54-.31-.85-.46-1.14-.65-1.67-1.08-1.64-1.07-.52-2.85,1.58-2.51,3.1-5,4.76-7.75l-10.21-5.06-3.34,7.06L169,24.41l-1.3-1.87,2.4-5.19,2.32,3L169,27.84c-3.11-1.48-6.06-3-9.12-4.28-1.2-.49-1.14-.92-.7-1.85,1.34-2.87,2.64-5.76,4.13-9l-19-5.76c-.3,1.46-.52,2.46-.7,3.47-.4,2.29-.77,4.59-1.21,6.88-.07.36-.49,1-.7.94a24,24,0,0,1-2.83-.56c.62-3.52,1.23-6.89,1.76-10.27a1.13,1.13,0,0,0-.6-.93c-2-.36-4-.61-6.19-.93-.32,3.78-.64,7.49-1,11.34l-3.27-.52c.3-3.75.6-7.41.88-11l-2.39-.46c-1.95-.38-2.36,0-2.46,2-.15,3-.42,6.08-.65,9.27l-3.33-.48c.24-3.64.48-7.21.71-10.78h-3.59c.28,3.62.56,7.19.84,10.83-1.75.13-3.29.22-4.83.36-1.74.17-3.47.37-5.2.58-1,.13-1.58-.07-1.61-1.32-.09-3.3-.33-6.59-.51-10L104.92,6c.46,3.67.93,7.31,1.4,11-.93.14-1.61.27-2.3.35s-1.11-.28-1.21-1.13c-.37-3.26-.85-6.5-1.31-9.88a12,12,0,0,1-1.79.35c-1,0-1.13.31-.87,1.3.75,2.87,1.35,5.78,2,8.69.08.38-.11,1.12-.32,1.19a18.18,18.18,0,0,1-2.61.43c-.31-1.31-.56-2.37-.83-3.43s-.62-2.19-.86-3.3c-.94-4.34-.92-4.35-5-3,0,0-.06.08-.21.31.07.41.14,1,.28,1.57.6,2.55,1.27,5.09,1.8,7.67a1.84,1.84,0,0,1-.59,1.56,9.58,9.58,0,0,1-2.51.46c-.83-3.55-1.62-7-2.46-10.59a109.76,109.76,0,0,0-22,9.17L69,25.64l4.27-2.17-3-5.55c1.17-.1,2.17-.2,3.17-.25a.83.83,0,0,1,.64.31c1.25,2.3,2.47,4.62,3.72,7L67.61,30.23l-5.25-9.89c-2.94,1.9-5.76,3.73-8.59,5.53-.67.43-.85.85-.35,1.54,1.32,1.8,2.61,3.63,4,5.56l3.91-2.67-3.86-5.44c1-.08,1.9-.22,2.79-.21a2,2,0,0,1,1.43.47c1.28,1.64,2.39,3.41,3.68,5.05.6.77.31,1.21-.27,1.62C62.3,33.76,59.5,35.7,56.59,37.72ZM116,12.6c-.23-2.58-.45-5.13-.69-7.85l-4.54.49.47,7.93ZM18.34,85.48c.3-.88.59-1.66.84-2.44.5-1.52.19-2.14-1.29-2.74-1.68-.67-3.35-1.36-5.05-2-.53,1.2-1.07,2.3-1.49,3.45-.27.7,0,1.13.82,1.41C14.18,83.77,16.13,84.62,18.34,85.48Z"/><path d="M181,98.58v49.77h-6.27V92.81c4.57,0,9.17-.27,13.71.08,3.53.28,6.82,4.63,6.83,8,.05,15.52,0,31,0,46.54,0,.29,0,.59-.05.94h-6v-1.75c0-14.65-.05-29.31,0-44,0-2.44-1.7-4.38-4.16-4.13C183.83,98.69,182.51,98.58,181,98.58Zm9.5,23.9c.06,1.43,1.14,1.77,2.22,2.42-.07-.4-.18-.65-.11-.8a4.88,4.88,0,0,1,.56-.81,10.66,10.66,0,0,1-1.26-.2C191.56,123,191.19,122.76,190.54,122.48Z"/><path d="M51.72,148.4h-6c-.45-3,.22-6,0-9s-.06-6.18-.06-9.27V92.6h6.08v1.63c0,6.89,0,13.79,0,20.68,0,1.27.37,1.76,1.64,1.64a13.09,13.09,0,0,1,2.58,0c3.31.34,4.29-1.75,4.31-4.35,0-6,0-12.07,0-18.1V92.5c1.8,0,3.56,0,5.3,0,.28,0,.75.67.75,1,0,6.9.13,13.8,0,20.69,0,1.41-1,2.85-1.73,4.17-.43.77-.72,1.33-.12,2.11a9.82,9.82,0,0,1,2,6.42c-.08,7.09,0,14.19,0,21.4H60.24v-1.58c0-6.54,0-13.08,0-19.62a7.18,7.18,0,0,0-.58-2.58,2.4,2.4,0,0,0-2.56-1.68,22.12,22.12,0,0,1-3.64,0c-1.32-.11-1.76.33-1.74,1.7.06,7.35,0,14.7,0,22.05Zm-2.34-13.67c.13,1.86-.75,2-2,1.89.53.48,1.29,1,1.59.8C49.71,137,50.44,136.2,49.38,134.73Zm9.08-15.62c-.62,1.64-.09,2.17,2.31,2.29Z"/><path d="M122,123.9h6.08v22c0,2,0,2,2,2h6.49V143.5c0-6,0-12.06,0-18.09,0-1.16.27-1.7,1.53-1.6s2.33,0,3.49,0,1.34.77,1.34,1.6c0,1-.24,2.08-.24,3.12q0,24.4,0,48.81a5.69,5.69,0,0,0,0,1.37c.29,1.16-.32,1.4-1.27,1.39a31,31,0,0,0-3.2,0c-1.41.14-1.67-.5-1.66-1.76,0-7.45,0-14.9,0-22.35,0-1.68.23-2.39-2.18-1.85a15.74,15.74,0,0,1-4.55,0c-1.43-.1-1.82.51-1.81,1.83,0,7,0,14,0,21v3.07c-1.73,0-3.38,0-5,0-.86,0-1.11-.6-1.07-1.45.14-3,.3-5.93.29-8.9,0-3.38-.21-6.75-.26-10.12,0-2.68,0-5.35,0-8V123.9Zm16,21.8c.75,2.24.57,3.79-1.5,4.62h1.8l.87-1.23.8,1.45.52-2.62Zm1.9-7.59,1.12,1.33-.55-2.42h-2.79l.32,1.5Zm-.32,29.16.62-2.59a6.15,6.15,0,0,0-1.49.6c-.39.29-1,.73-.45,1.31A4.24,4.24,0,0,0,139.56,167.27Zm2.17-22-.25-.29-1.22.32c.09,1.28.08,2.52,2.09,2.95l-1.41-1.85Zm-3.59-2.65,2,.34a7.75,7.75,0,0,0,.38-1.15.76.76,0,0,0-.32-.56c-.1-.06-.37.05-.52.16C139.21,141.73,138.74,142.12,138.14,142.59Z"/><path d="M171.51,103.79l-6.23,3.42V98.58c-2.56,0-4.93,0-7.29,0a1.4,1.4,0,0,0-1,1c-.06,5.57,0,11.14,0,16.88h6.3v6.05l-6.3.51c0,2.59,0,5.16,0,7.73-.06,3.48-.23,6.95-.21,10.42,0,.4.87,1.11,1.37,1.14,2.27.12,4.55,0,7,0V130c1.75,1.82,3.39,3.07,5.6,3.36a1.21,1.21,0,0,1,.78.89c.05,4.7,0,9.4,0,14.18H151V92.6h20.48Zm-16.92,17.62c-.79-.23-1.77-.58-1.49.79h3c-.17-1.34.08-2.4,1.4-2.88l-1.47-.09c.1-1.18-.34-1.38-2.09-.88C154.67,119.24,155.82,120.05,154.59,121.41Zm-.94,25.32,2.87-1.81a17.43,17.43,0,0,1-2.81-.35c-.13,0,0-.95,0-1.46l-.27-.18-.79,1.86Zm15-2.8c0-.37,0-1-.15-1.06a8.21,8.21,0,0,0-2.42-1c-.23,0-.63.78-.94,1.2A3,3,0,0,1,168.67,143.93Z"/><path d="M112.88,162.23c1.7.84,3.31,1.57,4.85,2.42a1.86,1.86,0,0,1,.89,1.25c.07,4.31,0,8.62.06,12.93,0,1-.38,1.35-1.35,1.3-2.47-.13-4.93-.3-7.4-.29-3.42,0-6.84.17-10.26.29-1.12,0-1.63-.11-1.63-1.57.06-11,0-22-.06-32.95,0-1.22.26-2.44.27-3.66,0-3.34,0-6.69,0-10,0-2.24-.17-4.47-.29-6.71,0-.92.19-1.4,1.25-1.39,6.29,0,12.58,0,18.86,0a3.43,3.43,0,0,1,.59.13c0,3.67,0,7.36,0,11a1.4,1.4,0,0,1-.76.92c-1.61.8-3.26,1.52-5,2.31v-5.15c0-.66,0-1.32,0-2a1.11,1.11,0,0,0-1.33-1.21c-2,.06-4,0-5.93,0-1.19,0-1.54.57-1.32,1.68a7.67,7.67,0,0,1,.07,1.52c0,12.92,0,25.85,0,38.78,0,1.49.44,2,1.89,1.86a46.54,46.54,0,0,1,4.87,0c1.29,0,1.82-.46,1.8-1.78C112.85,168.68,112.88,165.4,112.88,162.23ZM102,128l-.12-1.54-1,.55-.23-1.62-1.14,2.28Zm1.32,47.15c.12-.58.12-.58-2.63-2a4.31,4.31,0,0,0,1.22,1.15C102.32,174.63,102.79,174.89,103.28,175.19Z"/><path d="M98.52,117.14c-1.08-4.38.73-7.92,2.31-11.55,2.65-6.08,5.21-12.21,7.81-18.32a43.69,43.69,0,0,1,2.16-4.89A18.31,18.31,0,0,0,113,73c0-4.79-1.11-6.11-5.85-5.81-.85.06-1.7,0-2.67,0V79.58a14.9,14.9,0,0,0-1.6-1.53c-.9-.6-1.85-1.55-2.8-1.57-1.75,0-1.79-.88-1.78-2.19.06-4,.07-7.91,0-11.86,0-1.22.48-1.62,1.58-1.58,2.61.1,5.23.34,7.84.26a11.93,11.93,0,0,1,5.2.61c3.18,1.33,5.38,3.6,5.71,7a64.19,64.19,0,0,1,0,10.65c-.09,1.46-1,2.88-1.58,4.29q-5.28,12.28-10.59,24.57c-.31.72-.58,1.46-1,2.55,1.12.11,2.06.26,3,.27,4.48,0,4.48,0,4.48-4.42v-3.94c1.78.79,3.6,1.54,5.36,2.43a1.81,1.81,0,0,1,.69,1.36c.06,3.14,0,6.28,0,9.42,0,.77-.16,1.26-1.08,1.26C111.42,117.13,104.94,117.14,98.52,117.14Zm17.53-2.77-1.43-3-.76.4,1,2.26Z"/><path d="M136.61,88l6,3.26v25.93h-5.14c-1,0-.9-.75-.9-1.41,0-3.8-.06-7.61,0-11.42,0-1.41-.39-1.83-1.8-1.8-3.7.1-7.4,0-11.09.07-1.46,0-1.71-.48-1.79-1.83-.2-3,.9-5.7,1.7-8.44,2.11-7.21,4.4-14.37,6.62-21.54.9-2.93,1.78-5.86,2.74-8.77a1.45,1.45,0,0,1,1-.8c1.81-.08,3.64,0,5.7,0-.61,2-1.17,3.87-1.74,5.73Q135.79,74,133.56,81.2c-1.46,4.67-2.93,9.33-4.37,14-.11.36-.11,1,.1,1.16a2.45,2.45,0,0,0,1.32.17c1.46,0,2.93-.14,4.38-.07,1.28.07,1.69-.37,1.65-1.64C136.55,92.45,136.61,90.07,136.61,88ZM125,97.28c0,2.11,1.23,2.82,2.89,3.09l.46-1.44-2.2-2.09Zm12.22,4.22.44.19.9-1.62-.25-.47-2.24.4.15.56,1.45-.43Z"/><path d="M99.38,98.62H92.54v49.85c-1.93,0-3.78,0-5.63-.05-.27,0-.64-.55-.76-.91a4.4,4.4,0,0,1-.05-1.36V98.58c-2,0-3.93,0-5.83,0-1.13,0-1.56-.34-1.49-1.48a31,31,0,0,0,0-3.34c0-.88.24-1.3,1.2-1.3,6.43,0,12.86,0,19.39,0Zm-9.32-2,1.13,1.21,2.12-1.19c-.54-.47-1.67.34-1.81-1,0-.32-1.41-.49-2.36-.79l-1.07,3.45,1.53.42Z"/><path d="M75.63,92.49v55.87h-6c0-.5,0-1,0-1.57-.1-4.71-.22-9.41-.28-14.11,0-.94.28-1.89.26-2.83,0-2.31-.27-4.62-.26-6.94,0-3.13.21-6.26.26-9.39,0-.94-.26-1.89-.27-2.83,0-5.43,0-10.87,0-16.3,0-1.36.33-2.06,1.87-1.92S74.14,92.49,75.63,92.49Z"/><path d="M92.36,80.47v6.34c-1.63-.12-3.26-.31-4.9-.34-1.31,0-2.63.24-3.94.23-3.68,0-7.36-.21-11-.27-.84,0-1.68.27-2.52.27-7.45,0-14.9,0-22.36,0-2,0-2,0-2-2V80.47Z"/><path d="M45.7,160.55v-5.86H92.26v5.86Z"/><path d="M151,86.67V80.4h44.35c0,1.83.06,3.59-.05,5.35a1.55,1.55,0,0,1-1.15.92c-2.64.08-5.29,0-7.93,0H152C151.7,86.71,151.4,86.69,151,86.67Zm.37-1.17c2.31-1.4,2.33-1.5.82-3.09Z"/><path d="M151,160.54v-5.9h44.23v5.9Zm.36-1.18c1.41.17,1.49-1.26,2.35-2a2.79,2.79,0,0,1-.87-.1,5.23,5.23,0,0,1-.84-.51,11,11,0,0,1-.15,1.15C151.73,158.34,151.55,158.76,151.34,159.36Z"/></g></g></svg>