<svg xmlns="http://www.w3.org/2000/svg" viewBox="0 0 368.93 132.8"><g id="Слой_2" data-name="Слой 2"><g id="Слой_1-2" data-name="Слой 1"><path d="M0,132.39V103.67H4.39l12.56,21h-2.3l12.35-21h4.39l0,28.72H26.38l0-20.8h1.07L16.9,129.11H14.53L3.86,111.59H5.09v20.8Z"/><path d="M106.8,132.39V103.67h12.55a17.83,17.83,0,0,1,8.21,1.81,13.53,13.53,0,0,1,5.5,5,15.41,15.41,0,0,1,0,15.08,13.46,13.46,0,0,1-5.5,5,17.83,17.83,0,0,1-8.21,1.8Zm5.33-4.51h7a12,12,0,0,0,5.6-1.23,8.87,8.87,0,0,0,3.65-3.45,11,11,0,0,0,0-10.36,8.93,8.93,0,0,0-3.65-3.42,12,12,0,0,0-5.6-1.23h-7Z"/><path d="M148.89,132.39V103.67h5.34v28.72Z"/><path d="M166.13,132.39l12.92-28.72h5.25l13,28.72h-5.59L180.57,106.5h2.13l-11.08,25.89Zm5.94-6.64,1.44-4.19H189l1.44,4.19Z"/><path d="M209.12,132.39V103.67h4.39l12.56,21h-2.3l12.35-21h4.39l0,28.72h-5l0-20.8h1.06L226,129.11h-2.38L213,111.59h1.23v20.8Z"/><path d="M270,132.8a17,17,0,0,1-6.19-1.1,15.17,15.17,0,0,1-4.93-3.1,14.14,14.14,0,0,1-3.24-4.68,15.63,15.63,0,0,1,0-11.77,14.14,14.14,0,0,1,3.24-4.68,15,15,0,0,1,4.93-3.1,17.65,17.65,0,0,1,12.32,0,15,15,0,0,1,4.91,3.1,14.14,14.14,0,0,1,3.24,4.68,15.68,15.68,0,0,1,0,11.79,13.74,13.74,0,0,1-3.24,4.68,15.31,15.31,0,0,1-4.91,3.08A16.7,16.7,0,0,1,270,132.8Zm0-4.67a10.77,10.77,0,0,0,4-.74,9.32,9.32,0,0,0,3.2-2.12,9.8,9.8,0,0,0,2.11-3.2,11.12,11.12,0,0,0,0-8.08,10,10,0,0,0-2.11-3.2,9.3,9.3,0,0,0-3.2-2.11,10.77,10.77,0,0,0-4-.74,10.62,10.62,0,0,0-4,.74,9.49,9.49,0,0,0-3.2,2.11,9.75,9.75,0,0,0-2.13,3.2,11.06,11.06,0,0,0,0,8.06,9.78,9.78,0,0,0,2.11,3.22,9.32,9.32,0,0,0,3.2,2.12A10.77,10.77,0,0,0,269.93,128.13Z"/><path d="M299.26,132.39V103.67h4.39l18,22.12h-2.18V103.67h5.29v28.72h-4.39l-18-22.11h2.18v22.11Z"/><path d="M340.7,132.39V103.67h12.56a17.86,17.86,0,0,1,8.21,1.81,13.5,13.5,0,0,1,5.49,5,15.41,15.41,0,0,1,0,15.08,13.43,13.43,0,0,1-5.49,5,17.86,17.86,0,0,1-8.21,1.8Zm5.34-4.51h7a12,12,0,0,0,5.6-1.23,8.9,8.9,0,0,0,3.66-3.45,11,11,0,0,0,0-10.36,9,9,0,0,0-3.66-3.42,12,12,0,0,0-5.6-1.23h-7Z"/><path d="M75.64,116.47H60.32V121H70a8.21,8.21,0,0,1-.33,1.1,9.8,9.8,0,0,1-2.11,3.2,9.32,9.32,0,0,1-3.2,2.12,11.29,11.29,0,0,1-8,0,9.32,9.32,0,0,1-3.2-2.12A9.78,9.78,0,0,1,51,122.05,11.06,11.06,0,0,1,51,114a9.65,9.65,0,0,1,5.33-5.31,10.43,10.43,0,0,1,4-.74,10.57,10.57,0,0,1,4,.74,9.3,9.3,0,0,1,3.2,2.11,6.54,6.54,0,0,1,.41.51h6.22a13.65,13.65,0,0,0-2.77-3.83,15.08,15.08,0,0,0-4.9-3.1,17.68,17.68,0,0,0-12.33,0,15,15,0,0,0-4.93,3.1A13.94,13.94,0,0,0,46,112.15a15.63,15.63,0,0,0,0,11.77,14.14,14.14,0,0,0,3.24,4.68,15.17,15.17,0,0,0,4.93,3.1,17,17,0,0,0,6.19,1.1,16.8,16.8,0,0,0,6.14-1.1,15.37,15.37,0,0,0,4.9-3.08,13.74,13.74,0,0,0,3.24-4.68A14.87,14.87,0,0,0,75.79,118C75.79,117.49,75.69,117,75.64,116.47Z"/><path d="M222.68,11.92H165.32l-5,5.16H171L161,46,143,24.58,161.76,5.29h54.42L211,0H159.61L135.28,24.62l50.19,58.25,49.71-58.31ZM164.82,50.6l6.46-19.66,10.46,40.27Zm20.57,13.69L173.28,17.08h23.79ZM189,71.21l9.69-39.36,7.08,18.71Zm10.67-54.13H220l7.4,7.54-17.8,21.25Z"/></g></g></svg>