<svg xmlns="http://www.w3.org/2000/svg" viewBox="0 0 541.93 123.3"><g id="Слой_2" data-name="Слой 2"><g id="Слой_1-2" data-name="Слой 1"><path d="M0,122.75v-1.9Q0,61.6,0,2.34C0,.05,0,.05,2.36.05L120.71,0c2.2,0,2.2,0,2.2,2.23q0,59.34,0,118.67c0,2.4,0,2.4-2.35,2.4q-41.89,0-83.78-.07c-11.72,0-23.44-.23-35.16-.36C1.13,122.87.67,122.8,0,122.75ZM70.5,106.12c-.94.24-1.91.46-2.88.72-3.47.91-6.93,1.87-10.42,2.74S50,111.3,46.46,112.12c-3.1.71-6.21,1.32-9.29,2.07-1.26.31-2.45.88-3.68,1.31s-1.81,0-1.85-1.23c0-.62,0-1.24,0-1.86-.06-.89.17-1.48,1.15-1.69,1.4-.3,2.78-.67,4.15-1.07,1-.27,1.87-.71,2.84-1,2.94-.71,5.9-1.31,8.84-2s6-1.53,9-2.32c3.24-.85,6.46-1.73,9.69-2.59,2.17-.57,4.34-1.36,6.38.37a6.89,6.89,0,0,0,1.47,1c3.43,1.66,6.89,3.25,10.31,4.93a38.29,38.29,0,0,0,3.8,2.1,2,2,0,0,1,1.58,2.25c0,1.35.07,2.71,0,4s.42,1.66,1.68,1.65q11.69-.07,23.37,0c1.32,0,1.81-.34,1.8-1.74q-.07-54.82-.06-109.65c0-1.24-.29-1.71-1.64-1.71Q61.09,5,6.2,5C4.93,5,4.51,5.28,4.51,6.6q0,54.9,0,109.8c0,1.39.43,1.76,1.78,1.75,14.79-.05,29.59,0,44.38-.09a21.61,21.61,0,0,0,5.16-.82c3-.77,5.94-1.74,8.91-2.57a40,40,0,0,1,4.92-1.17,5.38,5.38,0,0,1,2.81.35c2.44,1.11,4.8,2.4,7.19,3.63s4.57.42,6.9.34a43,43,0,0,0-3.9-2.06c-2.85-1.43-5.64-3-8.56-4.3-2.17-1-3.8-2.1-3.3-4.81A3.62,3.62,0,0,0,70.5,106.12Z"/><path d="M412.19,64.29c-1.59,2.08-3.2,4.14-4.77,6.22s-3.34,4.47-5,6.72c-.59.82-1.07,1.72-1.67,2.54q-3.39,4.59-6.82,9.16c-1.13,1.5-2.33,2.76-4.53,2.42-1.37-.21-2.8,0-4.19-.09-.36,0-.74-.58-1-1-.14-.22,0-.6,0-.91V48.71c0-2.22,0-2.23,2.25-2.23,2,0,4.05,0,6.07,0s2.24.32,2.24,2.3c0,7.79,0,15.57,0,23.36,0,.59.06,1.19.1,1.78l.38.13q1.58-2.18,3.16-4.34,5.1-6.93,10.2-13.84c2-2.73,3.93-5.53,6-8.2a3.49,3.49,0,0,1,2.14-1.15c1.48-.17,3,0,4.51-.06s2,.45,2,2c-.05,12.82,0,25.65,0,38.47,0,.93-.07,1.87,0,2.8.11,1.2-.31,1.66-1.56,1.63-2.49-.08-5-.07-7.48,0-1.22,0-1.61-.4-1.6-1.62,0-7.74,0-15.47,0-23.21v-2Z"/><path d="M278.06,64.15c-1.09,1.42-2.2,2.83-3.26,4.26-2.19,2.94-4.35,5.88-6.52,8.83-2.86,3.88-5.75,7.74-8.56,11.65-1.2,1.66-2.48,2.83-4.74,2.46a19.36,19.36,0,0,0-3.73,0c-1.07.05-1.53-.4-1.49-1.46,0-1.25,0-2.49,0-3.74V49.05c0-2.36.21-2.56,2.6-2.56h5.76c2.2,0,2.22,0,2.23,2.3V72a5.64,5.64,0,0,0,0,1.09,4.82,4.82,0,0,0,.36.93,3.06,3.06,0,0,0,1-.59c.48-.65.8-1.42,1.27-2.07,2.51-3.39,5.07-6.73,7.55-10.14,2.09-2.86,4.07-5.81,6.14-8.69,1.24-1.72,2.55-3.38,3.83-5.06a2.08,2.08,0,0,1,.29-.36c.77-.71,6.79-1,7.49-.23a2.85,2.85,0,0,1,.58,1.79c0,6.91,0,13.81,0,20.72,0,6.7,0,13.39,0,20.09,0,1.42-.41,2-1.85,1.88-2.07-.1-4.15,0-6.23,0s-2.22,0-2.22-2.14V64.43Z"/><path d="M164.83,69q0-10.18,0-20.39c0-2,.08-2.09,2.12-2.09H199.8c2.18,0,2.43.24,2.43,2.4,0,13.49,0,27,0,40.48,0,1.46-.4,2-1.93,2-2.28-.11-4.57-.1-6.85,0-1.42.07-1.85-.36-1.84-1.81.06-10.53,0-21.07,0-31.6,0-2.08,0-2.08-2.14-2.08H177.08c-1.81,0-2,.22-2,2.07q0,15.57,0,31.14c0,2.25,0,2.25-2.31,2.25-2.07,0-4.15-.07-6.22,0-1.3.06-1.7-.39-1.69-1.67C164.86,82.77,164.83,75.86,164.83,69Z"/><path d="M294.57,69.06c.3-2,.26-4.19,1-6.07a56.19,56.19,0,0,1,3.88-7.51c2-3.55,5.5-5.19,8.94-7a19.12,19.12,0,0,1,11.16-1.94c3.61.31,6.78,2,9.8,3.91,3.72,2.37,6,5.88,7.82,9.76A21.63,21.63,0,0,1,339,72.29c-.18,1.51-1,2.94-1.46,4.43a20.83,20.83,0,0,1-5.11,8.42,20.52,20.52,0,0,1-8.72,5.18A25.14,25.14,0,0,1,318,91.68a13.13,13.13,0,0,1-7-1.1c-2-1-4.27-1.54-6.1-2.77a20.59,20.59,0,0,1-8-9.89C295.71,75,294.45,72.28,294.57,69.06Zm10.89-.22c-.43,4.71,2,9.89,5.81,11.94A36.56,36.56,0,0,0,315,82c2.27.93,4.37.06,6.42-.64,1.87-.63,3.1-2.08,4.33-3.68a11.78,11.78,0,0,0,2.68-7.44,35.18,35.18,0,0,0-.58-6,9.85,9.85,0,0,0-4.66-6.68,11.31,11.31,0,0,0-9.59-1.35,10.51,10.51,0,0,0-6,4.42A12.25,12.25,0,0,0,305.46,68.84Z"/><path d="M480.87,72.92v8.13c0,1.08.81.89,1.44.89h13.86c1.4,0,2.8,0,4.2,0,1.17,0,1.71.33,1.67,1.59q-.1,3.19,0,6.39c0,1.11-.41,1.41-1.46,1.41q-14.4,0-28.8,0c-1.5,0-1.49-.85-1.49-1.92q0-18,0-36c0-1.61,0-3.21,0-4.82,0-1.78.34-2.14,2.08-2.14,9,0,18.05,0,27.08,0,1.19,0,1.7.37,1.66,1.61-.06,2.07-.09,4.15,0,6.22.06,1.29-.47,1.57-1.63,1.56-5.66,0-11.31,0-17,0-1.26,0-1.77.32-1.7,1.65a43.9,43.9,0,0,1,0,5.13c-.06,1.22.34,1.63,1.57,1.61,4.62-.06,9.24,0,13.86,0,2.06,0,2.26.21,2.28,2.21,0,1.61-.06,3.22,0,4.83.06,1.28-.41,1.73-1.7,1.72-4.67-.06-9.34,0-14,0Z"/><path d="M355.3,76.67v8.94c0,1.51,0,3,0,4.52,0,.86-.31,1.2-1.18,1.19-2.54,0-5.08,0-7.62,0-1.18,0-1.52-.45-1.51-1.57.05-3.42,0-6.85,0-10.27V48.82c0-2.08.25-2.33,2.33-2.33,5.19,0,10.38-.11,15.57,0a15.07,15.07,0,0,1,6.15,1.16c4.11,2,7.45,5,8.72,9.77a15.52,15.52,0,0,1-2.05,13.37c-2.42,3.49-5.75,5.75-10.2,5.82C362.23,76.72,358.91,76.67,355.3,76.67Zm0-21c0,4,0,7.51,0,11a1.45,1.45,0,0,0,1,1c2.8,0,5.6,0,8.4-.07a2.12,2.12,0,0,0,1.31-.62c2.19-2.34,2-5.24,1.34-8a4.11,4.11,0,0,0-2.66-2.59A92.18,92.18,0,0,0,355.33,55.64Z"/><path d="M211,69c0-6.85,0-13.7,0-20.55,0-1.49.44-2,1.95-2,5.29.07,10.59-.09,15.87.08a21.6,21.6,0,0,1,6.62,1.28,12.36,12.36,0,0,1,4,3c3.34,3.24,5.31,7.18,4.91,11.92a14.11,14.11,0,0,1-3.14,8.41c-1.57,1.84-3.05,3.56-5.25,4.49a12.28,12.28,0,0,1-4,1c-3,.16-6,.14-9,.07-1.28,0-1.73.35-1.7,1.66.07,3.73,0,7.47,0,11.2,0,1.37-.46,1.84-1.81,1.79-2.28-.09-4.57-.09-6.85,0-1.29,0-1.68-.37-1.67-1.66C211,82.78,211,75.87,211,69Zm10.34-7.35c0,1.6-.07,3.21,0,4.81,0,.43.6,1.15,1,1.16,2.68.08,5.38.07,8.06,0A2.57,2.57,0,0,0,232.61,66a9.47,9.47,0,0,0,1.1-5.17,5.07,5.07,0,0,0-4.79-5c-2.12-.06-4.24,0-6.36,0-1,0-1.26.39-1.24,1.29C221.36,58.62,221.33,60.12,221.33,61.62Z"/><path d="M451.89,55.85V58.1q0,15.57,0,31.14c0,2.07,0,2.07-2.13,2.07s-4.26-.06-6.39,0c-1.37.06-1.78-.44-1.78-1.8.05-10.48,0-21,0-31.45,0-2.24,0-2.24-2.31-2.24-3.21,0-6.43-.05-9.65,0-1.25,0-1.63-.44-1.59-1.63.07-2.07.05-4.15,0-6.23,0-1.13.45-1.54,1.59-1.54,11.31,0,22.63,0,33.94,0,1.67,0,2.16.56,2.18,2.28s-.09,3.44,0,5.14c.1,1.46-.5,1.95-1.87,1.93-3.37,0-6.75,0-10.12,0Z"/><path d="M523,46.48h16.5c2.15,0,2.34.21,2.35,2.28,0,1.71-.09,3.43,0,5.14.1,1.46-.35,2-1.9,2-3.21-.11-6.43,0-9.64,0-2.09,0-2.09,0-2.09,2q0,15.63,0,31.28c0,2.14,0,2.14-2.1,2.14s-4.15-.1-6.22,0c-1.57.1-1.9-.52-1.89-2,.05-9.75,0-19.5,0-29.25,0-4.29,0-4.29-4.36-4.29-2.6,0-5.19-.05-7.79,0-1.15,0-1.55-.38-1.5-1.53.07-2,.08-4,0-6.07-.06-1.37.46-1.81,1.81-1.8C511.84,46.52,517.44,46.48,523,46.48Z"/><path d="M164.83,22V13.7c0-1.16.06-2.2,1.71-2.09s2.39.78,2.4,2.18c0,4.36.05,8.72,0,13.08,0,1.38.42,1.84,1.78,1.72a22,22,0,0,1,3.89,0c1.35.11,1.68-.47,1.67-1.71,0-4.31-.07-8.61,0-12.92a3,3,0,0,1,1.06-2.18c1.38-.86,2.66,0,2.66,1.71,0,4.31,0,8.61,0,12.92,0,1.49.55,2.27,2.09,2.15.93-.07,1.29.33,1.27,1.27-.05,2-.06,3.94,0,5.91,0,1.23-.43,1.67-1.64,1.61s-2.39.06-2.42-1.63c0-.73-.05-1.46,0-2.18.08-1.07-.33-1.45-1.43-1.44-3.68.06-7.36,0-11,0-2,0-2,0-2-2.07Z"/><path d="M363.33,32.09a31.8,31.8,0,0,1-4.08-.06c-.45-.06-.86-.75-1.2-1.23-1-1.43-1.93-2.94-3-4.33-.21-.27-.92-.17-1.61-.28,0,1.71,0,3.2,0,4.69,0,.95-.33,1.34-1.26,1.25a4.22,4.22,0,0,0-.94,0c-1.48.21-2.07-.36-1.93-1.89.12-1.28,0-2.57,0-4.3-.82.39-1.49.49-1.76.88a29.88,29.88,0,0,0-2.07,3.55,2.74,2.74,0,0,1-3,1.77,19.29,19.29,0,0,0-2.33,0,11,11,0,0,1,.77-1.76c1-1.49,2.07-3,3.19-4.4a2.37,2.37,0,0,0-.18-3.21,13.69,13.69,0,0,1-3.21-5.59c2.71-.81,3.58-.46,5,1.93a27.59,27.59,0,0,0,1.9,3c.26.34.83.44,1.25.65a3.86,3.86,0,0,0,.48-1.16,26.56,26.56,0,0,0,0-3c-.06-1.74,1.15-1.64,2.32-1.7s1.92.22,1.81,1.61a18.16,18.16,0,0,0,0,3,4.24,4.24,0,0,0,.53,1.28c.44-.24,1-.37,1.3-.74,1-1.42,1.95-2.92,2.94-4.37.43-.65,3.52-1.12,4.06-.53.2.21.05,1-.18,1.3-1.08,1.66-2.26,3.26-3.35,4.91-1,1.46.28,2.43.93,3.46C360.8,28.48,362,30.14,363.33,32.09Z"/><path d="M289.81,28.74c2,0,2.69-1.6,3.07-3.87s.38-4.42.75-6.6A2.08,2.08,0,0,1,295.12,17c2.64-.13,5.3-.05,7.94-.07,1,0,1.17.63,1.16,1.45,0,2.8,0,5.6,0,8.41v1.71l1.84.3c0,2.29,0,4.56,0,6.83,0,1-.76,1.07-1.55,1.07s-1.51-.1-1.56-1.08,0-2.15,0-3.34H293c0,.84,0,1.69,0,2.54a1.69,1.69,0,0,1-1.81,1.86c-1.32.09-1.37-.81-1.37-1.74C289.8,32.88,289.81,30.87,289.81,28.74Zm5.67-.14c1.27,0,2.4,0,3.52,0,.93,0,1.15-.41,1.14-1.22,0-1.81,0-3.63,0-5.44,0-.89,0-1.65-1.27-1.62S297.05,20.7,297,22a9.21,9.21,0,0,1-1.37,5.21C295.45,27.52,295.54,28,295.48,28.6Z"/><path d="M236.79,19c3.32-3.41,7-2.43,9.33.16s3.11,7.32,1.3,9.54c-1.3,1.59-2.21,3.53-4.76,3.55s-3,0-5.94-1.93c0,2.17-.09,4.23,0,6.28.09,1.68-1,1.44-2,1.51-1.23.08-1.74-.27-1.73-1.62.06-5.92,0-11.83,0-17.74,0-.84-.11-1.76,1.14-1.8s2.26-.08,2.41,1.48A2.43,2.43,0,0,0,236.79,19Zm7.52,5.61c0-2.6-1.56-4.28-4-4.26a3.72,3.72,0,0,0-3.65,4.19c.11,2.65,1.43,4.22,3.79,4.22S244.32,27.15,244.31,24.56Z"/><path d="M394.54,24.59c-.93,1.37-1.88,2.72-2.79,4.09-1,1.58-2,1.55-2.9-.09-.6-1.07-1.19-2.15-1.86-3.18a7.89,7.89,0,0,0-1.42-1.24v6.14A1.84,1.84,0,0,1,382.71,32a1.7,1.7,0,0,1-.43-1.21c0-4,0-8,0-12,0-.63.44-1.77.69-1.78,1,0,2.5,0,3,.6a58.78,58.78,0,0,1,3.63,6.08c.21.37.49.7.8,1.14a78.09,78.09,0,0,1,4.14-7.2c.46-.64,2-.64,3.09-.58.35,0,.9,1.15.91,1.79.09,3.93,0,7.87.07,11.81,0,1.57-.88,1.44-1.89,1.45s-2,.08-1.9-1.47c.1-2,0-4,0-6Z"/><path d="M319.4,24.62c1.88.7,2.58,1.69,2.55,3.39s-.75,3.17-2.5,3.47a51.34,51.34,0,0,1-7.64.62c-3.46.06-3,.48-3-2.9s.05-6.95,0-10.41c0-1.39.36-2,1.84-1.91,2.72.22,5.53,0,8.13.63a3.4,3.4,0,0,1,1.43,5.9A6.68,6.68,0,0,0,319.4,24.62Zm-6.6,4.59a17.61,17.61,0,0,0,3.42-.06,2.51,2.51,0,0,0,1.55-1.34,1.28,1.28,0,0,0-1-1.88,10.76,10.76,0,0,0-3.75-.07c-.32.07-.28,1.74-.39,2.67A2.89,2.89,0,0,0,312.8,29.21Zm1.63-9.09c-.36.13-1.43.19-1.71.69-.8,1.43,0,2.5,1.67,2.5a13.08,13.08,0,0,0,1.4,0,1.48,1.48,0,0,0,1.47-1.62C317.34,19.72,315.87,20.37,314.43,20.12Z"/><path d="M328.89,25.71c1.94-2.7,3.82-5.45,5.89-8a2.77,2.77,0,0,1,2.32-.6,2.14,2.14,0,0,1,1.21,1.65c.11,4,0,8,.07,12,0,1-.4,1.37-1.36,1.45-2.64.21-2.71.17-2.71-2.47a36.13,36.13,0,0,0-.36-6.15C332.06,26,330,28.37,328.32,31,327.27,32.55,326,32,324.55,32a9.08,9.08,0,0,1-.16-1.22c0-4.09,0-8.19,0-12.28,0-1.33.51-1.74,1.76-1.67s2.35,0,2.33,1.73c0,1.86,0,3.73,0,5.6,0,.49.06,1,.09,1.48Z"/><path d="M278.19,26.22c-.09,2.62,2.28,3.44,4.52,2.93a14.21,14.21,0,0,0,2-1.06,2.7,2.7,0,0,1,1.48-.18c1.84.44,2,.92.75,2.36a4.67,4.67,0,0,1-2.13,1.41c-5.23,1.35-9.48.54-10.92-5.05-.9-3.48.58-7.45,3.64-9,2.31-1.13,5-1.54,7.31-.13,2.64,1.6,4.37,3.94,4.14,7.32-.07,1.07-.6,1.27-1.5,1.27-2.54,0-5.09,0-7.63,0C279.28,26.12,278.73,26.18,278.19,26.22Zm0-3H285a3.44,3.44,0,0,0-3.66-3.48A3.25,3.25,0,0,0,278.15,23.22Z"/><path d="M194.09,26.13c-1.5,0-3,0-4.51,0-1,0-1.12.5-.71,1.32a4,4,0,0,0,6.22.79c1.11-1,2-.12,2.94,0,.06,0,.24,1.1,0,1.33A11.12,11.12,0,0,1,195,32c-3.82,1.56-8.82-.42-10.22-4.22-1.13-3.07-.91-6.76,2.76-9.31,2.38-1.64,4.83-2.33,7.47-1,2.38,1.19,5.23,3.87,4.91,7.24-.11,1.16-.51,1.54-1.61,1.49-1.4-.06-2.8,0-4.2,0Zm-5.34-2.92h6.83a3.33,3.33,0,0,0-3.53-3.45A3.17,3.17,0,0,0,188.75,23.21Z"/><path d="M261.53,22.6h5.85c0-1.47,0-2.85,0-4.23,0-1.05.35-1.53,1.44-1.49s2.25,0,2.26,1.46c.06,4.25.08,8.5,0,12.75,0,1.61-1.45.88-2.29,1s-1.45,0-1.4-1.08c.05-1.54,0-3.08,0-4.82-1.78,0-3.38-.06-5,0a1.31,1.31,0,0,0-.84.94,33,33,0,0,0,0,3.72c0,.83-.24,1.19-1.14,1.24-2.94.17-2.95.19-2.95-2.72,0-3.47,0-6.94,0-10.42,0-1.84.3-2,2.21-2.14,1.56-.09,2,.58,1.89,2C261.46,20.06,261.53,21.25,261.53,22.6Z"/><path d="M409,32.21c-4.78.36-7.5-3.14-7.79-7.33-.34-4.92,4.17-7.84,7.43-8.12,3.59-.32,8.14,3.48,7.86,8C416.28,28.45,413.82,32.68,409,32.21Zm3.61-7.71c0-2.54-1.33-4.16-3.48-4.2-3.48-.06-4.42,3.41-3.41,6.51a2.6,2.6,0,0,0,2.37,1.9C411.33,29,412.67,27.8,412.62,24.5Z"/><path d="M215.44,24.6c0,2.08-.06,4.16,0,6.23,0,1.22-.6,1.41-1.54,1.29s-2.26.52-2.23-1.28c0-1.09-.06-2.18,0-3.27s-.41-1.47-1.46-1.4a20.27,20.27,0,0,1-2.81,0c-1.11-.07-1.66.32-1.57,1.51.06.72,0,1.45,0,2.18,0,2.25-.69,2.79-2.91,2.2a1.26,1.26,0,0,1-.73-.93c0-4.36,0-8.72,0-13.08,0-1.38,1.07-1.13,1.93-1.16s1.71,0,1.7,1.25,0,2.18,0,3.27c0,.93.36,1.32,1.29,1.29,1.14,0,2.29,0,3.43,0,.82,0,1.11-.35,1.09-1.12,0-.93,0-1.87,0-2.8,0-1.55.46-1.84,2.15-1.91,1.4-.06,1.65.64,1.61,1.82C215.39,20.66,215.44,22.63,215.44,24.6Z"/><path d="M369.34,26c1-1.48,2-3,3.08-4.44a35.15,35.15,0,0,1,3.09-4,3.2,3.2,0,0,1,2.25-.51c.25,0,.63,1,.63,1.51.06,4.05,0,8.09.07,12.13,0,1.4-.71,1.43-1.75,1.46S375,31.92,375,30.61c.09-1.81,0-3.63,0-5.44,0-.5-.05-1-.11-2-1,1-1.72,1.7-2.3,2.48-1.21,1.64-2.31,3.37-3.52,5a4.36,4.36,0,0,1-1.38,1.18c-1.51.81-2.63.17-2.63-1.47,0-3.94,0-7.88,0-11.82,0-1.43.59-1.75,1.87-1.75s1.9.37,1.85,1.77c-.08,2.37,0,4.74,0,7.11Z"/><path d="M458.47,23.68l-3.77,4.8a18.85,18.85,0,0,1-2.5,3,3.81,3.81,0,0,1-2.41.49c-.19,0-.52-1-.52-1.53,0-3.95,0-7.89,0-11.84,0-1.21.37-1.78,1.71-1.76s1.72.54,1.68,1.79c-.06,2.33,0,4.66,0,7L453,26a18.51,18.51,0,0,0,2-2.12c1.43-2,2.67-4.22,4.21-6.16.44-.56,1.67-.67,2.53-.65.26,0,.7,1.14.71,1.77.06,3.94,0,7.88.06,11.83,0,1.5-.77,1.51-1.85,1.5s-2,0-1.88-1.48c.1-2.27,0-4.54,0-6.82Z"/><path d="M432.79,20.47c-2,1.16-3.58,1.92-5.4.22a2.93,2.93,0,0,0-2.6-.16,4.46,4.46,0,0,0-.91,7.64,4.2,4.2,0,0,0,4.48-.15c.7-.55,3.35-.43,3.73.27a1.51,1.51,0,0,1-.1,1.42,8.57,8.57,0,0,1-2.66,2.17,8.42,8.42,0,0,1-10.73-4.82,8,8,0,0,1,2.95-8.76c2.62-2,5.37-1.84,8.09-.74C430.84,18.05,431.68,19.41,432.79,20.47Z"/><path d="M440.32,16.89c1.65,0,3.31,0,5,0,1.45,0,1.33,1,1.34,1.92s.12,1.87-1.31,2c-3,.21-3,.26-3,3.39,0,2.18,0,4.35,0,6.53,0,1.05-.33,1.44-1.43,1.45-2.63,0-2.63.05-2.64-2.66,0-2.27-.08-4.56,0-6.83.07-1.54-.53-2.08-2-1.9a6.61,6.61,0,0,1-1.09,0c-1.25,0-1.68-.75-1.67-1.93s.4-1.91,1.67-1.92C436.9,16.88,438.61,16.89,440.32,16.89Z"/><path d="M224.42,16.89c1.66,0,3.32,0,5,0,1.47,0,1.32,1,1.33,1.92s.11,1.87-1.32,2c-3.34.22-3.34.26-3.34,3.7,0,2.07,0,4.14,0,6.21,0,1.06-.31,1.45-1.41,1.46-2.66,0-2.66.05-2.66-2.62V22.85c0-2.05,0-2.05-2.07-2.08s-2.39-.52-2.29-2.25a1.48,1.48,0,0,1,1.64-1.62Z"/><path d="M90.88,46c-4.46-2.28-8.47-4.35-12.51-6.38-1.58-.79-3.19-1.52-4.81-2.23-1.84-.82-3.21-1.9-2.76-4.22a3.28,3.28,0,0,0-.09-.91L31.62,41.88c0-1.54-.06-2.76,0-4a1.45,1.45,0,0,1,.77-1c1.86-.63,3.74-1.18,5.63-1.68,2.31-.62,4.64-1.18,7-1.74,2-.48,4-.87,6-1.4,2.43-.64,4.82-1.42,7.25-2.05,2-.53,4.08-.92,6.12-1.39,1.39-.32,2.79-.6,4.14-1,2.28-.75,4.21.09,6.17,1.09,4.6,2.35,9.19,4.72,13.84,7,1.72.84,2.64,1.86,2.41,3.92S90.88,43.48,90.88,46Z"/><path d="M70.83,44.55,31.64,54.17c0-1.49-.3-3,.13-4.28.23-.66,1.72-1,2.7-1.28,2.36-.7,4.76-1.31,7.15-1.92,2.13-.54,4.27-1,6.4-1.56l6.83-1.66c.94-.23,1.87-.5,2.82-.74C60.8,42,64,41.19,67.08,40.39a29.85,29.85,0,0,1,3.38-.94,4.36,4.36,0,0,1,2.28.54c3.52,1.76,7,3.6,10.48,5.39,2.23,1.14,4.5,2.2,6.7,3.38a1.86,1.86,0,0,1,.9,1.27c.09,2.48.05,5,.05,7.85a25,25,0,0,1-2.84-1Q79.8,52.79,71.6,48.59a1.6,1.6,0,0,1-.73-1.1A25.56,25.56,0,0,1,70.83,44.55Z"/><path d="M90.87,82.87c-4.48-2.28-8.51-4.35-12.56-6.4a59.85,59.85,0,0,0-5.48-2.63,2.7,2.7,0,0,1-2-3.26,6.21,6.21,0,0,0-.14-1.25c-1.87.34-3.66.62-5.43,1-2.34.51-4.67,1.08-7,1.68-1,.26-2,.71-3,1C51,74,46.63,75.06,42.31,76.08l-8.07,1.86c-.1,0-.2,0-.3.08-2.33,1-2.33,1-2.33-1.61s0-2.41,2.46-3c2-.47,4-1.21,6-1.74,2.33-.6,4.68-1.1,7-1.65,2.14-.5,4.28-1,6.41-1.52s4.38-1,6.55-1.6c1.25-.33,2.45-.85,3.71-1.19,2.17-.57,4.34-1.16,6.55-1.57s3.72,1.21,5.5,2c2.52,1.13,4.91,2.56,7.36,3.84a54.74,54.74,0,0,0,5.78,2.9c1.74.66,2.12,1.69,2,3.37C90.77,78.29,90.87,80.32,90.87,82.87Z"/><path d="M90.85,70.39c-1.44-.62-2.6-1.06-3.7-1.61C82,66.2,76.76,63.61,71.59,61a2,2,0,0,1-.72-1.34,19.17,19.17,0,0,1,0-2.67c-1.65.31-3,.53-4.43.84-2.59.57-5.18,1.13-7.75,1.79-2,.53-4,1.26-6.08,1.8S48.2,62.43,46,63l-6.68,1.63c-2.09.5-4.17,1-6.27,1.45-1,.22-1.6-.21-1.47-1.34a3.68,3.68,0,0,0,0-.47c0-2.7.18-2.85,2.9-3.25,1.17-.18,2.28-.74,3.45-1,3.31-.82,6.65-1.57,10-2.39,3-.74,5.92-1.52,8.88-2.28.89-.23,1.78-.43,2.67-.67,3.57-1,7.11-2,10.7-2.81a4.37,4.37,0,0,1,2.61.57C77.87,54.88,82.92,57.46,88,60a21.52,21.52,0,0,1,2.2,1.22,1.51,1.51,0,0,1,.64,1C90.87,64.81,90.85,67.39,90.85,70.39Z"/><path d="M70.85,93.64c-.9.27-1.49.47-2.1.62-2,.47-4,.89-6,1.39-2.25.57-4.48,1.21-6.72,1.8s-4.36,1.09-6.54,1.62c-2.33.58-4.65,1.17-7,1.71s-4.4.92-6.59,1.44c-1,.24-2,.67-3,.91s-1.28-.25-1.33-1.2c-.19-3.24.3-3.75,3.49-4.18a27.9,27.9,0,0,0,4-1.26c1.08-.31,2.18-.57,3.27-.81,3.89-.88,7.79-1.73,11.68-2.62,2.59-.59,5.18-1.19,7.74-1.88,2.93-.8,5.81-1.78,8.76-2.5a3.83,3.83,0,0,1,2.27.63c3.48,1.75,6.92,3.58,10.39,5.35,2.19,1.12,4.42,2.16,6.6,3.3.41.21,1,.7,1,1.07.08,2.58,0,5.16,0,8.19-1.56-.68-2.82-1.15-4-1.75-3.06-1.55-6.08-3.17-9.13-4.73a57.49,57.49,0,0,0-5.6-2.69C70.92,97.62,70.78,97,70.84,96,70.88,95.3,70.85,94.64,70.85,93.64Z"/><path d="M90.82,95.2c-4-2.07-7.59-3.93-11.19-5.75-2.26-1.15-4.5-2.38-6.86-3.31-1.56-.62-2.18-1.49-2-3.1a9.46,9.46,0,0,0-.07-1.64L64.28,83c-2,.49-4.08,1-6.11,1.48-1.31.33-2.58.8-3.89,1.13-2.37.59-4.76,1.12-7.14,1.69l-6.55,1.58-6.42,1.51a5.52,5.52,0,0,0-.92.15c-1.62.71-1.62.72-1.63-1a7.54,7.54,0,0,1,.05-2c.14-.52.53-1.25,1-1.38,3-.86,6-1.58,9-2.34,3.76-1,7.5-2,11.27-2.89,2.28-.56,4.62-.92,6.9-1.49C61,79,62.21,78.43,63.45,78c.87-.28,1.79-.42,2.68-.62l3.44-.82c1.87-.44,3.39.47,4.94,1.27,2.14,1.11,4.25,2.28,6.41,3.37s4.2,2,6.3,3.06q1.61.8,3.15,1.71a1,1,0,0,1,.43.72C90.83,89.37,90.82,92,90.82,95.2Z"/></g></g></svg>