<svg xmlns="http://www.w3.org/2000/svg" viewBox="0 0 432.89 104.82"><g id="Слой_2" data-name="Слой 2"><g id="Слой_1-2" data-name="Слой 1"><path d="M148.29,96.82c4.25,0,6.19-2.94,6.19-5.68s-1.94-5.66-6.19-5.66H141v19.06h3.1V96.82ZM144.12,94V88.3h4.2a2.81,2.81,0,0,1,2.94,2.84A2.78,2.78,0,0,1,148.32,94Z"/><path d="M163.52,93.32l0,.13H161l1.89-8h-3.09l-1.9,8h-2.66v2.82h2l-2,8.27h3.1l1.95-8.27h3.14v.13a9.82,9.82,0,0,0,10,8.42,10.31,10.31,0,0,0,7-2.68,9.84,9.84,0,0,0,0-14.24,10.28,10.28,0,0,0-7-2.7A9.84,9.84,0,0,0,163.52,93.32ZM180.29,95a6.72,6.72,0,0,1-6.85,6.87A6.64,6.64,0,0,1,166.6,95a6.85,6.85,0,1,1,13.69,0Z"/><polygon points="207.02 104.54 201.84 85.48 198.5 85.48 195.43 99.72 195.12 99.72 191.85 85.48 188.39 85.48 183.5 104.54 186.8 104.54 189.93 91.77 190.23 91.76 193.45 104.54 197.19 104.54 200.06 91.77 200.37 91.76 203.72 104.54 207.02 104.54"/><path d="M206.61,95a9.72,9.72,0,0,0,10.06,9.81,10.31,10.31,0,0,0,7-2.68,9.84,9.84,0,0,0,0-14.24,10.48,10.48,0,0,0-14,0A9.55,9.55,0,0,0,206.61,95Zm16.91,0a6.72,6.72,0,0,1-6.85,6.87A6.64,6.64,0,0,1,209.83,95a6.85,6.85,0,1,1,13.69,0Z"/><path d="M242.39,104.54V85.48h-3.1v9.37l0,.05a6,6,0,0,1-4,1.59c-2.61,0-4.17-1.7-4.17-4.55V85.48H228v6.73c0,4.18,2.82,7.1,6.87,7.1A6.93,6.93,0,0,0,239,98.05l.26-.2v6.69Z"/><polygon points="257.49 104.54 260.6 104.54 260.6 85.48 257.49 85.48 257.49 93.44 250.82 93.44 252.72 85.48 249.62 85.48 247.73 93.44 245.06 93.44 245.06 96.27 247.05 96.27 245.1 104.54 248.2 104.54 250.15 96.27 257.49 96.27 257.49 104.54"/><path d="M264.78,104.54l.69-2.52h8l.75,2.52h3.22l-6.3-19.06h-3.76l-5.82,19.06Zm1.47-5.34,3.07-11.15,3.34,11.15Z"/><path d="M278.87,90.44A4.9,4.9,0,0,0,283,95.29l-.5,3.45c-.21,1.46-.69,3-2.71,3h-.9v2.83H280c3.32,0,5-1.75,5.59-5.68l.49-3.4h2.69v9.1h3.1V85.48H284.6C280.66,85.48,278.87,88.05,278.87,90.44Zm9.9-2.14v4.32h-4.2a2.18,2.18,0,1,1,0-4.32Z"/><path d="M71.63,49.44c0-9.51-8.14-16.95-18.06-16.95H46.76V8.27H37.55V66.14h16C63.49,66.14,71.63,58.7,71.63,49.44Zm-24.79,8.1V41.09h6.73c4.87,0,8.86,3.63,8.86,8.26s-4,8.19-8.86,8.19Z"/><rect x="76.15" y="8.27" width="9.12" height="57.87"/><path d="M129.88,57.7V8.27H105.45c-5,0-9.21,3.8-9.21,8.51V53.07a4.76,4.76,0,0,1-5,4.63v8.44h43.55V57.7Zm-26.38,0c2-2.39,2-3.63,2-8.35V18.77a2.12,2.12,0,0,1,2.21-2.07h13v41Z"/><path d="M222.77,58.2c-2,0-3.19-1.16-3.19-3.64V8.27h-9.2V49.68a8.92,8.92,0,0,1-17.8-.08V8.27h-9.2V49.6c0,10.33,8.32,17.36,18.06,17.36a17.6,17.6,0,0,0,10.71-3.55A9.46,9.46,0,0,0,219.58,67h4.25V58.2Z"/><polygon points="254.97 66.14 264.17 66.14 264.17 8.27 254.97 8.27 254.97 33.32 238.77 33.32 238.77 8.27 229.56 8.27 229.56 66.14 238.77 66.14 238.77 41.91 254.97 41.91 254.97 66.14"/><path d="M270.57,23.07V51.34c0,8.59,7.53,15.62,16.73,15.62a16.44,16.44,0,0,0,16.82-15.62l.09-1.16H295l-.08,1.16a7.59,7.59,0,0,1-15.14,0V23.07a7.58,7.58,0,0,1,15.14,0l.08,1.15h9.12V23.07c0-8.69-7.52-15.63-16.82-15.63S270.57,14.38,270.57,23.07Z"/><polygon points="318.4 8.27 309.2 8.27 309.2 66.14 318.4 66.14 318.4 41.42 322.12 41.42 334.78 66.14 344.96 66.14 330.09 37.12 344.96 8.27 334.78 8.27 322.12 32.82 318.4 32.82 318.4 8.27"/><path d="M389.7,58.2c-2,0-3.18-1.16-3.18-3.64V8.27h-9.21V49.68a8.92,8.92,0,0,1-17.79-.08V8.27h-9.21V49.6c0,10.33,8.32,17.36,18.06,17.36a17.57,17.57,0,0,0,10.71-3.55A9.48,9.48,0,0,0,386.52,67h4.25V58.2Z"/><polygon points="403.68 13.97 412.7 13.97 420.14 0 411.29 0 403.68 13.97"/><path d="M410.49,58a8.61,8.61,0,0,1-8.85-8.35V8.27h-9.21V49.6c0,10.34,8.32,17.36,18.06,17.36a17.57,17.57,0,0,0,10.71-3.55A9.49,9.49,0,0,0,428.64,67h4.25V58.2h-1.06c-2,0-3.19-1.16-3.19-3.64V8.27h-9.21V49.68A8.61,8.61,0,0,1,410.49,58Z"/><path d="M178.24,46.91A18,18,0,0,0,164.1,29.23l-.84-.2,12.85-12V8.27h-39v8.48h27.12L152.33,28.28v7.9h3.57c6.06,0,12.33,4,12.33,10.82,0,7.08-5.63,10.3-10.85,10.3-3.7,0-10.19-1.24-12.62-9.46l-8.62,4c2.5,8.45,11,14.32,20.87,14.32C169.71,66.14,178.24,58.41,178.24,46.91Z"/><path d="M16,41.91c9.92,0,18.06-7.44,18.06-16.94,0-9.26-8.14-16.7-18.06-16.7H0V66.13H9.21V41.91ZM9.29,33.32V16.87H16c4.87,0,8.86,3.63,8.86,8.18s-4,8.27-8.86,8.27Z"/></g></g></svg>