<svg xmlns="http://www.w3.org/2000/svg" viewBox="0 0 234.81 234.78"><g id="Слой_2" data-name="Слой 2"><g id="Слой_1-2" data-name="Слой 1"><path d="M234.81,117.43c.32,63.31-51.37,117.64-117.93,117.35C51.26,234.5-.51,180.69,0,116.4.51,52.94,52.32-.43,118.25,0,183.78.43,235.14,54.16,234.81,117.43Zm-197.43,80c.33-.53.64-1.08,1-1.6L53.8,174c1-1.38.94-1.2-.09-2.41A82.51,82.51,0,0,1,36.33,138c-.73-2.89-1.21-5.85-1.75-8.78-.12-.63-.35-1-1-1.18-.16,0-.31-.11-.47-.16l-27.9-8.78c-1.53-.48-1.59-.44-1.55,1.15a113.25,113.25,0,0,0,14.42,52.62A114.91,114.91,0,0,0,36.23,197a8.14,8.14,0,0,0,.86.66,8.49,8.49,0,0,0,.92,1.14c2.8,2.49,5.52,5.08,8.44,7.42A112.39,112.39,0,0,0,90.72,228a109.43,109.43,0,0,0,15.88,2.66c2.77.25,5.56.32,8.34.46a12.21,12.21,0,0,0,1.26-.07c-.12-.5-.19-.89-.31-1.25q-4.4-13.89-8.8-27.78c-.66-2.08-.47-1.67-2.26-1.95a83,83,0,0,1-39-16.9c-1.07-.84-2.11-1.71-3.14-2.6a.84.84,0,0,0-1.23-.05c-.16.13-.33.23-.49.34q-5,3.56-10.09,7.1Zm160.4.23L183,187.29c-3.12-2.19-6.24-4.39-9.37-6.57-.83-.59-.85-.58-1.62.07s-1.26,1.07-1.91,1.59a82.94,82.94,0,0,1-40.7,17.8,1.65,1.65,0,0,0-1.57,1.33q-4.38,14.16-8.8,28.31c-.11.36-.16.75-.26,1.24a12.69,12.69,0,0,0,1.28.08c2.35-.11,4.7-.2,7-.37a106.8,106.8,0,0,0,19.77-3.43A113.36,113.36,0,0,0,197,198.7a7.69,7.69,0,0,0,.77-1c.36-.34.74-.66,1.09-1a113.88,113.88,0,0,0,29.93-56A114.78,114.78,0,0,0,230.94,125c.13-1.76.18-3.51.23-5.27,0-.91-.21-1-1.1-.8l-.28.1-27.34,8.56c-2.26.71-1.9.46-2.24,2.57a83.16,83.16,0,0,1-18.81,41.19c-1.29,1.55-1.29,1.18-.08,2.89q7.8,11,15.63,22.08C197.25,196.79,197.51,197.25,197.78,197.7ZM37.07,117.35A80.37,80.37,0,1,0,117.9,37.08,80.41,80.41,0,0,0,37.07,117.35Zm.58-79.48.2-.18,1,.73L60.75,53.87c1.5,1.06,1.2,1,2.48-.09A83.56,83.56,0,0,1,92.35,37.63a81.4,81.4,0,0,1,13.27-3,1.37,1.37,0,0,0,1.28-1.12Q111.45,19.1,116,4.69c.09-.3.14-.62.22-1-.44,0-.77-.07-1.09-.05l-4.37.17A104.44,104.44,0,0,0,98.44,5.16,113.37,113.37,0,0,0,33.17,41,114.92,114.92,0,0,0,12.23,74a113,113,0,0,0-8.57,40.74c0,.41.06.83.09,1.35.49-.12.84-.18,1.18-.29l27.9-8.78c1.91-.6,1.58-.41,1.86-2.22A83.08,83.08,0,0,1,45.34,75a84,84,0,0,1,8.57-12c.75-.88.75-.88.07-1.85L53.86,61,38.3,38.84Zm159.58-.33.14.18c-.14.22-.27.44-.42.66L181,61c-.72,1-.73,1,.05,2A85.35,85.35,0,0,1,192,79.15a82.46,82.46,0,0,1,8.28,25.53c.28,1.83.27,1.83,2.09,2.41l20.51,6.42,7.12,2.22c1.07.33,1.24.21,1.22-.92s-.12-2.25-.16-3.38a102.29,102.29,0,0,0-1.74-14.9,112.87,112.87,0,0,0-12.13-33.85,114.84,114.84,0,0,0-19.89-26.35A111.78,111.78,0,0,0,153.48,9.41a110.22,110.22,0,0,0-22.56-5,103.32,103.32,0,0,0-11.11-.77c-.36,0-.71,0-1.18.06.12.52.2.93.33,1.33,1.4,4.53,2.82,9,4.23,13.58q2.32,7.45,4.63,14.91a1.41,1.41,0,0,0,1.27,1.13c2.84.49,5.69,1,8.49,1.65a82.81,82.81,0,0,1,34.18,17.61c.32.27.66.53,1.09.86Zm-79.86-25c-.18.41-.29.61-.36.82q-3.14,9.86-6.25,19.71a7.25,7.25,0,0,0-.15,1l6.79-.31C117.65,32.69,117.65,13.59,117.37,12.55ZM34.05,124.12l-.27-6.62a2.21,2.21,0,0,0-.38-.18,1.32,1.32,0,0,0-.39-.06H13.51a2.63,2.63,0,0,0-.49.07s-.06,0-.08.05a.29.29,0,0,0,0,.1C13.51,117.9,32.78,124,34.05,124.12ZM117.52,201c-.31,1.17-.3,20.23,0,21,.48-.61,6.56-20.13,6.56-21.15C121.86,200.69,119.7,201.1,117.52,201Zm83.35-90.25c0,.32,0,.64,0,1,.07,1.58.14,3.17.2,4.76,0,1,.07,1.07,1.08,1.07,2.15,0,4.3,0,6.46,0h12.52c.32,0,.69.12,1-.2C221.18,116.79,201.76,110.76,200.87,110.74Z"/><path d="M117.29,165.23c-24.53.28-48.65-20.17-48.62-48.93a48.77,48.77,0,1,1,97.54.09C166.12,145.83,141.52,165.51,117.29,165.23Zm-9.74-89.78c-.12.11-.33.2-.35.32a.8.8,0,0,0,.14.57.73.73,0,0,0,1,.22c.35-.17.26-.39.15-.64a.64.64,0,0,1,.63.64c0,.39-.21.56-.55.72a1.81,1.81,0,0,0-.68,2.64,8.21,8.21,0,0,1,.83,1.61,6.78,6.78,0,0,0,.8,1.85c.71,1.18,2.11,1.1,3.09,2a3.52,3.52,0,0,0,.48-.86c.22-1.3,1.54-2,1.73-3.33,0-.18.37-.36.6-.45a3.54,3.54,0,0,1,1-.18,2.88,2.88,0,0,0,1.94-.88,2.67,2.67,0,0,1,2.06-1c.32,0,.65-.09,1-.11a6,6,0,0,0,3.23-1.5l-1.64-.48.6-.55c.27.23.47.51.73.57a1.18,1.18,0,0,0,.89-.16c.28-.24.16-.63-.12-.87a2.22,2.22,0,0,0-.53-.28l.3-.14.36-1.11-1.57.23c0-.15-.07-.49,0-.6s.48-.08.72-.06c.45,0,.9.14,1.35.16.14,0,.41-.15.4-.2-.09-.57.54-.5.71-.8-.59-1.14-.65-1.26-1.73-1.39-2.11-.26-4.21-.53-6.33-.64a42,42,0,0,0-9.88.8A4.81,4.81,0,0,0,107,72l-.18,2.47,1.17,0,1,.71-.16.2a9.63,9.63,0,0,0-1-.22C107.58,75.05,107.45,75.19,107.55,75.45ZM91.89,146.79l0,0a4.38,4.38,0,0,1-.29,1.34c-.21.33-.68.51-1,.7l.45,1.22-.64.18c.21,1,0,2,.94,2.74l-.34.23c.63,1.06,1,1.27,1.82.92.44,1.35,1.41,1.8,2.51,1.13-.22-.21-.44-.4-.65-.61a5.34,5.34,0,0,1-.6-.66,1.81,1.81,0,0,1,.18-2.22c.42-.45.85-.89,1.25-1.36a1.31,1.31,0,0,0,.15-.51c-.09-.09-.13-.15-.18-.19-.8-.62-.78-.8.07-1.32a2.09,2.09,0,0,0,.55-.52c.3-.37.56-.77.91-1.25,0-.21-.82-.18-.44-.75,1,0,1,0,1.71-1.16.58-.1,1.18-.17,1.75-.32a1.27,1.27,0,0,0,1-1.71c-.06-.24-.11-.48-.17-.75,1.5.57,1.85.43,2.81-.83a17,17,0,0,1,1.81-2.07,1.91,1.91,0,0,0,.67-1.38,1.43,1.43,0,0,1,.92-1.31,8.06,8.06,0,0,1,2.06-.64,1.81,1.81,0,0,0,1.32-.75,7.24,7.24,0,0,0,1.47-3.83,1.73,1.73,0,0,1,.28-.93c.43-.54,1-1,1.42-1.51a4.55,4.55,0,0,0,.62-.77,1.71,1.71,0,0,0-.27-2c-.52-.34-1-.71-1.56-1a7.6,7.6,0,0,0-1.18-.46,6,6,0,0,1-.76-.19,13.12,13.12,0,0,0-2.4-1.14,2.46,2.46,0,0,1-1.93-2.07,2.46,2.46,0,0,0-2.49-2,2,2,0,0,1-1.51-.84,1.68,1.68,0,0,0-.61-.63,1,1,0,0,1-.71-1.28c-.29.08-.65.23-.68.18-.36-.59-.83-.37-1.31-.23a.73.73,0,0,1-.48,0c-.62-.28-1.37-.23-1.9-.77-.35-.35-.71-.16-1.06,0-.06,0-.17,0-.26,0l.2-.68a11.69,11.69,0,0,0-1.87.7A10.87,10.87,0,0,0,92,116.67a2.11,2.11,0,0,0-2-.46,1.34,1.34,0,0,1-1-.33c-.63-.47-.52-1.13-.34-1.81.34-1.34,0-1.74-1.37-1.75a10.34,10.34,0,0,1-1.23-.13c.24-.59.44-1,.6-1.5s.3-1,.44-1.47c-1.32-.3-1.5-.23-2.13.71a1.86,1.86,0,0,1-3-.15,3.23,3.23,0,0,1-.51-2.09,6.88,6.88,0,0,0,.31-1.63c-.1-.81.33-1.07.91-1.43a2.6,2.6,0,0,1,2.36-.23c.31.11.9.14,1,0,.35-.54.82-.38,1.24-.33s.73.32,1.11.35c.86,0,1.06.56,1.19,1.29a2,2,0,0,0,1.06,1.59,1.35,1.35,0,0,0,.29-1.42c-.13-.48-.25-1-.4-1.43a1.09,1.09,0,0,1,.43-1.32,11.47,11.47,0,0,1,1.57-1,1.65,1.65,0,0,0,1.1-2l0,0a4.85,4.85,0,0,0,.65-.71c.53-.88,1-1.76,2.27-1.72a1,1,0,0,0,.37-.1c-.06-.9,0-1.11.53-1.36.74-.33,1.52-.58,2.43-.92a3.39,3.39,0,0,0-.45.62.55.55,0,0,0,.11.44c0,.07.25.08.36,0,1-.4,2-.83,3-1.29l-.46-.59-.62.38L100.37,94l.3-1.17c-.72-.7-1.51-.14-2.27-.13.21-.15.48-.18.62-.33a2,2,0,0,1,2-.43l.8.09a2.65,2.65,0,0,0,2.07-.45c.13-.11.38-.06.74-.1l-1.26,2.35,3.35.78a1.59,1.59,0,0,0-.8-1.89c-.59-.26-.6-.38-.51-1.06a14.72,14.72,0,0,0,.06-1.76c-.67-.34-.78-1.3-1.64-1.46a1.49,1.49,0,0,1-1.2-1.17c-.16-1.25-1-2.08-1.53-3.3-.27.4-.44.63-.58.88a1.09,1.09,0,0,1-1.13.63,1.27,1.27,0,0,1-1-1.05c0-.32-.07-.64-.1-.87l-2-1.53c-.79.31-1.58-.55-2.38-.09-.11,1.06.26,2.11-.51,3l.5.57a1.19,1.19,0,0,1-.38,2l-.86.47a15.9,15.9,0,0,1,.18,1.73.85.85,0,0,1-.4.59c-.11.06-.41-.11-.56-.25s-.39-.36-.2-.69c.05-.08-.06-.27-.12-.41a2.51,2.51,0,0,1-.33-.78c0-.54-.26-.8-.77-.83a4.41,4.41,0,0,1-2.3-1.07,3.07,3.07,0,0,0-1.31-.66,1.35,1.35,0,0,1-1.23-.94c-.2-.52-.48-.54-.92-.17a7.53,7.53,0,0,0-.56.57,44.28,44.28,0,0,0-5.09,6.48,45.63,45.63,0,0,0-5.18,10.93,1.65,1.65,0,0,0,.35,1.8c.89,1,1.71,2.1,2.5,3.19a2,2,0,0,1,.35,1.19,1.19,1.19,0,0,0,.62,1.25c1.23.69,2.47,1.38,3.73,2a1.1,1.1,0,0,0,.76.05,1.33,1.33,0,0,1,1.5.51,2.71,2.71,0,0,0,1.38.91,2.79,2.79,0,0,1,2,1.38,4.59,4.59,0,0,0,1.17,1.45,8.26,8.26,0,0,0,1.85,1,4.12,4.12,0,0,1,.37-.54.38.38,0,0,1,.66.09A3.26,3.26,0,0,1,91.6,119a1.55,1.55,0,0,1-.73,1.21,2.85,2.85,0,0,0-.75.76,3.19,3.19,0,0,0-.62,1.32c0,.5.11,1-.26,1.44a1.07,1.07,0,0,0,.09,1c1,1.14,1.31,2.6,1.91,3.91A3.84,3.84,0,0,0,93,130.68a2.51,2.51,0,0,1,1.43,3c0,.16,0,.33-.06.49-.29,1.22-.59,2.44-.86,3.67a7.78,7.78,0,0,0-.27,1.65,5.45,5.45,0,0,1-.64,2.38c-.36.72-.95,1.38-.63,2.29a.36.36,0,0,1,0,.2c-.19.59-.39,1.18-.56,1.78a4.4,4.4,0,0,0-.07.77ZM133,95.62c.21.18.34.36.51.41.54.14.77.59,1.05,1,.41.56.09,1.09-.13,1.58s-.69.32-1.08.27c-.55-.07-1.11-.16-1.66-.26a1.32,1.32,0,0,0-1.2.23c-.14.92-.29,1.63-.34,2.34a4.78,4.78,0,0,0,.1,1.46c.1.43.54.24.84.32a.72.72,0,0,1,.47,1,2.33,2.33,0,0,1-.93,1,2,2,0,0,0-1.22,1.68,1.58,1.58,0,0,1-.9,1.22,9.52,9.52,0,0,0-1.15.76c-1,.75-1.36,1.93-2.07,2.87a1.06,1.06,0,0,0-.1.75,4.78,4.78,0,0,1-.1,2.8,4.82,4.82,0,0,0-.13,1.66,1.2,1.2,0,0,0,.29.6l1.45,2a7.36,7.36,0,0,0,.64.88c.4.39.86.72,1.28,1.1a1.6,1.6,0,0,0,1.46.41,5.29,5.29,0,0,1,1.86,0,3.72,3.72,0,0,0,1.66-.12,9.17,9.17,0,0,1,1.94-.34,1.15,1.15,0,0,1,.92.44c.33.7.85.7,1.48.69a.92.92,0,0,1,.93,1.27,3.67,3.67,0,0,1-.25.75,2,2,0,0,0,.47,2.35,3.24,3.24,0,0,1,.83,1.77c.11.64.19,1.29.36,1.92A2,2,0,0,1,140,132a3.4,3.4,0,0,0-.4,3.65,5.92,5.92,0,0,1,.7,2.67,6.69,6.69,0,0,0,.76,2.94,4,4,0,0,1,.65,2.55c-.11.64.46,1.06,1.14,1s1.58-.14,2.37-.17A2.6,2.6,0,0,0,147,144c.69-.67,1.3-1.41,2-2a2.22,2.22,0,0,0,.79-1.43.89.89,0,0,1,.67-.87c.73-.2.86-.76.87-1.4a2.68,2.68,0,0,0-.11-.68,1.1,1.1,0,0,1,.51-1.35,10.17,10.17,0,0,1,1.67-1,1.89,1.89,0,0,0,1.15-1.8c.12-1.36-.57-2.56-.57-3.88a2,2,0,0,1,.2-1.13,11.25,11.25,0,0,1,3.37-3.29,8.08,8.08,0,0,0,1.54-1.23,20.38,20.38,0,0,0,1.71-2.32,1.56,1.56,0,0,0,.27-1.67c-1.05.11-2.07.21-3.08.33-.46.06-.85-.07-.94-.52a4.25,4.25,0,0,0-1.52-2.11,2.78,2.78,0,0,1-.53-.9,8.12,8.12,0,0,1-1.08-3.12s0-.06,0-.09c-.38-.87-.76-1.74-1.13-2.62a.85.85,0,0,1-.09-.38c0-.11.09-.29.17-.31a.49.49,0,0,1,.43.07,3.66,3.66,0,0,1,.42.68,9.18,9.18,0,0,0,.76,1.38,2.85,2.85,0,0,1,.63,1.43,2,2,0,0,0,.36.89,5.13,5.13,0,0,1,1.32,3.13,3.4,3.4,0,0,0,.19.87.62.62,0,0,0,.83.51c1.53-.58,3.21-.67,4.62-1.67a1.44,1.44,0,0,0,.73-1.46c-.17-2.18-.24-4.37-.57-6.53a44.94,44.94,0,0,0-12.51-25,6,6,0,0,0-.61-.5l-.56.33c-.89.48-1.49,1-1.23,2.24.21,1,.6,1.44,1.63,1.25.49-.09,1-.18,1.47-.23a.78.78,0,0,1,1,.52l-1.82.07a3.84,3.84,0,0,0-.59,0c-.63.13-.77.37-.54,1,.1.3.26.56-.12.75-1.21-.52-1.34-.41-1.66,1.58-.35.09-.78.34-1.13.25a2.22,2.22,0,0,0-1.15.09,2.49,2.49,0,0,1-1.15.19,3.24,3.24,0,0,0-1.35-.12c-.36.07-.56-.07-.47-.57a12.55,12.55,0,0,0,0-2c-1.37.31-1.49.51-1.3,1.7a6.8,6.8,0,0,1,0,1c-.12.08-.18.14-.23.14a3.24,3.24,0,0,0-2.38,1.18,14.5,14.5,0,0,1-2.15,1.51c-.23.14-.63,0-.93,0l-.35.53C133.62,95.17,133.62,95.17,133,95.62Zm13.27-8c-.29-.47-.79-.78-.67-1.42a1.7,1.7,0,0,1,1.1-1.41,2.1,2.1,0,0,0,1.4-1.63c0-.2,0-.51-.07-.62-.76-.7-1.53-1.37-2.35-2a.84.84,0,0,0-.8,0,8.72,8.72,0,0,0-1.39,1.52,5.93,5.93,0,0,1-3.15,2.56c-.22.07-.39.26-.61.34a1.24,1.24,0,0,0-.74,1.46c.05.43.22.85.25,1.29a.87.87,0,0,0,.59.9,1.23,1.23,0,0,0,1.13-.15c.3-.18.61-.32,1-.53.18.43.33.76.44,1.09.18.5.3,1,.5,1.51.08.17.4.44.44.41.51-.32,1.34-.27,1.49-1a3.56,3.56,0,0,1,1.24-2A1.35,1.35,0,0,0,146.29,87.64ZM100.43,76.11c-.07-.1-.23-.24-.21-.3.22-.53-.27-.61-.5-.9-.39-.48-.75-.29-1.14-.11-.63.29-1.27.57-1.88.9s-.73.54-.06,1,.65,1,.06,1.54a9.77,9.77,0,0,0-.84,1.09,4.57,4.57,0,0,1-.92-.06.71.71,0,0,0-.83.36c-.07.09-.08.34,0,.36a3,3,0,0,0,.86.34,2.31,2.31,0,0,0,.78-.06,1.38,1.38,0,0,1,1.52.71c.39.9,1.22,1,1.92,1.39a4.94,4.94,0,0,0,1.1.29l.12-.18-.61-.89,1.25.5c.46-.86.47-.87,0-1.48-.2-.26-.48-.45-.7-.69a.68.68,0,0,1,0-1.08l1.58,1.36,1.57-1.57-3.7-2.08Zm33.91,11.78c-.9,0-1.19.13-1.35.67a1.85,1.85,0,0,0,.78,2.39c.33.28.45.78.15.92-.58.25-.51.88-.91,1.19l.36.32-.47.81c1.07-.06,2-.11,3-.19a.64.64,0,0,0,.47-.28,6.15,6.15,0,0,0,.33-.9l-2.07-3,.52-1-.89-.3ZM159.13,133a11.17,11.17,0,0,1-.88,1,3.82,3.82,0,0,1-1,.73c-1.14.49-1.18.54-1.17,1.82a1.76,1.76,0,0,1-.22,1,2.47,2.47,0,0,0-.2,2.08c0,.24.3.44.47.67.19-.14.3-.19.34-.26,1-2,2-3.91,3-5.88C159.68,133.76,159.59,133.38,159.13,133Zm-34.5-50.12a3.39,3.39,0,0,1,.75.22,2.35,2.35,0,0,0,2,0,9.73,9.73,0,0,0,1-.45c.35-.19.73-.39.64-.88s-.87-1.15-1.29-1.08c-.82.14-1.64.31-2.47.47l-.8-.76-1,.77.79.31-.18.34Zm5.83,8.28-.13,1.73c.4.42.83.08,1.26,0s.76-.13.88-.52a7.79,7.79,0,0,0,.31-1.51c0-.12-.3-.38-.48-.4a2.25,2.25,0,0,0-1,.17A6.09,6.09,0,0,0,130.46,91.13Zm-36.55,19.3a7.88,7.88,0,0,0-3.55-2,3.49,3.49,0,0,0-1.07,0,3,3,0,0,0-.71.33l0,.21A3.5,3.5,0,0,1,91.85,110,2,2,0,0,0,93.91,110.43ZM92.76,80.74l-.58-.66c-.86-1-1.15-1-2.12-.24-.18.14-.34.31-.55.5l.59.69a1.65,1.65,0,0,1,2.06-.17C92.24,80.92,92.44,80.81,92.76,80.74Zm1.71,29.78c.4.58-.15.68-.44.93a5.92,5.92,0,0,0,3,.13C96,110.51,96.14,110.53,94.47,110.52Zm-21-6c-.48.66.28,1.07.36,1.61s.63.84,1.11,1.2A4.39,4.39,0,0,0,73.42,104.56ZM96.57,77.14l0-.18a5.91,5.91,0,0,0-1.21-.29c-.21,0-.45.21-.63.38s0,.39.07.42a1.21,1.21,0,0,0,.71.14A7.39,7.39,0,0,0,96.57,77.14Zm-4.71,34c.16.55.39.53.79.19ZM142.72,91a2.47,2.47,0,0,0-.44-.29c-.05,0-.23.2-.22.23a.86.86,0,0,0,.32.31S142.55,91.08,142.72,91ZM90.86,81.49c.57.32.57.32.78-.32Zm10.22,10.65-.13.26a.6.6,0,0,0,.91.13Zm46.69-3c.43,0,.66-.08.48-.49,0-.07-.12-.11-.23-.2ZM93,82.46a1.61,1.61,0,0,0,.12-.38c0-.06-.13-.11-.2-.16a1,1,0,0,0-.17.3S92.85,82.34,93,82.46Zm52.93,7.37c.05-.07.13-.15.14-.22s-.1-.11-.16-.17a1.42,1.42,0,0,0-.12.25S145.85,89.77,145.91,89.83ZM93.13,86.89a1.24,1.24,0,0,0-.21-.2s-.13.06-.13.08a1,1,0,0,0,.08.23Zm5.27,25,0-.24-.52.08v.16Z"/><path d="M176.35,88.69c-.58-.12-1.16-.22-1.74-.36s-1-.11-1.44.5c-.71,1.09-1.37,2.2-2,3.3a1.44,1.44,0,0,0,0,1.42c.44,1,.36,1.23-.59,1.88-.17.11-.34.2-.5.32a.73.73,0,0,1-1.13-.14c-.58-.68-1.18-1.34-1.71-2.07a3,3,0,0,1,0-3.63c.63-1,1.3-2,2-3,.33-.5.66-1,1-1.51a1.54,1.54,0,0,0-.35-2.12c-.49-.48-.93-.48-1.71,0-.45.27-.89.57-1.33.87a1.11,1.11,0,0,0-.5,1.37c.22.84.14,1-.59,1.47a4.32,4.32,0,0,1-.5.33c-.77.44-1.17.38-1.68-.37-.92-1.37-1.81-2.77-2.72-4.16-.22-.34-.44-.66-.64-1-.44-.74-.36-1.07.34-1.59a8.63,8.63,0,0,1,.75-.48,1,1,0,0,1,1.28.09,1.26,1.26,0,0,0,1.79,0l7.84-5.1c.61-.4,1-.84.69-1.64a1,1,0,0,1,.48-1.28c.2-.12.39-.26.59-.37.82-.49,1.23-.43,1.75.36,1.74,2.67,3.51,5.32,5.18,8a9.93,9.93,0,0,1,1,2.67,4.34,4.34,0,0,1-1.1,4A5.77,5.77,0,0,1,176.35,88.69Zm1.32-7.31a4.45,4.45,0,0,0-1-2.31,1.07,1.07,0,0,0-1.57-.32c-.8.47-1.58,1-2.33,1.52a1,1,0,0,0-.31,1.56,6.81,6.81,0,0,0,.86,1.21,2.11,2.11,0,0,0,2.44.6A2.63,2.63,0,0,0,177.67,81.38Z"/><path d="M55.68,82.49a5.48,5.48,0,0,1,5.45,3.84c.29.8.52,1,1.4,1,1.22,0,2.45-.15,3.67-.22a1.57,1.57,0,0,0,1.24-.87c.62-1,.77-1,1.86-.61.15.06.31.11.46.18.68.3.75.38.6,1.13a21.62,21.62,0,0,1-.61,2.4,3.1,3.1,0,0,1-3.08,2.23c-1.65.09-3.31.15-5,.21-1.13,0-1.49.31-1.78,1.35a1.07,1.07,0,0,0,.65,1.46c.57.27,1.17.46,1.75.7a1.13,1.13,0,0,0,1.42-.36c.66-.75.69-.74,1.61-.39l.55.22c.78.37.95.7.65,1.5q-1.1,2.88-2.24,5.74c-.37.9-.71,1-1.63.69l-.73-.31a.92.92,0,0,1-.67-1.08c.15-.82-.27-1.22-1-1.49-2.94-1.14-5.86-2.3-8.8-3.43-.85-.33-1.06-.29-1.63.41a1,1,0,0,1-1.39.34l-.1,0c-1.53-.56-1.65-.8-1-2.33,1-2.56,2-5.13,3-7.68a12.42,12.42,0,0,1,1.41-2.61A4.38,4.38,0,0,1,55.68,82.49Zm2.15,7.63a6.15,6.15,0,0,0-.6-1.37,2.47,2.47,0,0,0-4.45.58,7.41,7.41,0,0,0-.35.93A1,1,0,0,0,53,91.59c.9.4,1.83.76,2.77,1.07a.93.93,0,0,0,1.28-.47C57.36,91.54,57.57,90.85,57.83,90.12Z"/><path d="M85.58,163.32a10.54,10.54,0,0,1,7.74,5.07,7.27,7.27,0,0,1,.77,5.85,12.15,12.15,0,0,1-3.78,6.29,7.82,7.82,0,0,1-8.24,1.62,11.66,11.66,0,0,1-4.5-2.83,7.65,7.65,0,0,1-2.1-7.76,12.48,12.48,0,0,1,3.87-6.25A8.29,8.29,0,0,1,85.58,163.32Zm-5.82,11.85a3.68,3.68,0,0,0,2.12,3.18A3.13,3.13,0,0,0,85.5,178a11.53,11.53,0,0,0,4-6.45,3.17,3.17,0,0,0-1.47-3.69A3.36,3.36,0,0,0,84,168,7,7,0,0,0,82.82,169a13.81,13.81,0,0,0-2.52,4.13A19,19,0,0,0,79.76,175.17Z"/><path d="M145.67,66.12l.58.16c1,.26,1.15.21,1.77-.61,1.25-1.63,2.48-3.28,3.72-4.92.62-.82,1.25-1.63,1.86-2.46s.57-1,0-1.77a1.12,1.12,0,0,1,0-1.46l.12-.16c.89-1.24,1.15-1.29,2.37-.37l10.65,8a4.14,4.14,0,0,1,.46.37c.46.45.54.81.18,1.32q-1.24,1.74-2.58,3.42a.85.85,0,0,1-1.31.18,8.11,8.11,0,0,1-1.12-.83.92.92,0,0,1-.19-1.4c.17-.28.4-.53.57-.82a1,1,0,0,0-.23-1.5c-1-.83-2.09-1.63-3.17-2.4a1.07,1.07,0,0,0-1.65.26,16.59,16.59,0,0,0-1.14,1.51,1.1,1.1,0,0,0,.28,1.79c.8.59,1.63,1.13,2.44,1.72s1,1,.3,2l-.3.39c-.65.79-1,.83-1.84.19s-1.49-1.21-2.26-1.79-1.34-.62-2,.22c-.48.6-.94,1.2-1.38,1.83a1,1,0,0,0,.23,1.64c1.06.85,2.15,1.67,3.25,2.46.72.52,1.22.41,1.81-.29.23-.28.43-.59.68-.85a.85.85,0,0,1,1.24-.17,8.47,8.47,0,0,1,1.27,1,.81.81,0,0,1,.14,1.24c-.89,1.24-1.8,2.46-2.75,3.65-.39.49-.76.5-1.32.16-.19-.12-.37-.26-.56-.4L145.1,69.29a7.57,7.57,0,0,1-.63-.49.91.91,0,0,1-.2-1.33,5.45,5.45,0,0,1,.72-.94A2.93,2.93,0,0,1,145.67,66.12Z"/><path d="M120.49,47.73c.14,1.61.06,1.86-1.86,2-1,.09-1.31-.21-1.43-1.2a5.63,5.63,0,0,0,0-.59,1.19,1.19,0,0,0-1.39-1.11c-1.25.1-2.5.22-3.75.35a1.06,1.06,0,0,0-1.09,1.18,17.24,17.24,0,0,0,.2,2.27,1,1,0,0,0,1.14.86c1.06-.07,2.11-.19,3.16-.32s1.36,0,1.52,1.13l.06.4c.14,1.17-.2,1.56-1.39,1.62-1,.06-2,.09-3,.19-.8.09-1.13.46-1.11,1.24a24.72,24.72,0,0,0,.23,2.58,1.09,1.09,0,0,0,1.25,1c1.39-.09,2.78-.2,4.16-.35a1.08,1.08,0,0,0,1.06-1.2c0-.43,0-.87,0-1.3a.92.92,0,0,1,.88-1,9.24,9.24,0,0,1,1.49-.05c.59,0,.84.22.91.84.16,1.48.29,3,.38,4.45,0,.66-.18.91-.85,1-.94.15-1.9.23-2.86.32-1.91.16-3.83.29-5.74.45s-3.9.32-5.84.5c-1,.1-1.42-.19-1.5-1.2,0-.26,0-.53,0-.79a1,1,0,0,1,.64-1c1.06-.5,1.1-.6,1-1.75q-.33-4.26-.68-8.52c0-.29-.08-.59-.11-.88a1.19,1.19,0,0,0-1-1.08c-.89-.21-.95-.3-1.06-1.17,0-.16,0-.33,0-.49-.08-1,.13-1.33,1.15-1.42l6.83-.6,5.84-.53c.49,0,1-.06,1.49-.06.78,0,1.08.27,1.16,1.05C120.34,45.62,120.41,46.67,120.49,47.73Z"/><path d="M135.92,172.46c-.94.19-1.31-.13-1.56-.67-.07-.15-.14-.3-.2-.45-.44-1-.32-1.38.73-1.86l12.44-5.54c1-.45,1.36-.31,1.81.66s.94,2.05,1.38,3.08.31,1.41-.7,1.89l-.54.23c-.95.37-1.3.24-1.75-.66-.09-.18-.17-.37-.26-.54a1.06,1.06,0,0,0-1.5-.57c-1.22.49-2.43,1-3.63,1.62a1,1,0,0,0-.55,1.41,15.46,15.46,0,0,0,.8,1.82,1.11,1.11,0,0,0,1.7.62c.79-.35,1.55-.75,2.33-1.12.27-.13.54-.27.81-.37a1,1,0,0,1,.48-.07c.5.07,1.14,1.09,1.24,1.91.06.56-.1.84-.75,1.13-.91.4-1.84.75-2.75,1.15s-1.19.87-.78,1.87c.26.64.55,1.28.85,1.91.44.89.86,1.07,1.75.7,1.19-.5,2.37-1,3.54-1.58.83-.4,1-.83.66-1.7l-.08-.18c-.21-.55-.71-1.2-.22-1.66a5.84,5.84,0,0,1,2-1c.41-.16.77.14,1,.54.61,1.36,1.24,2.71,1.8,4.09.24.58.07.91-.49,1.23-.2.11-.41.2-.62.3l-12.26,5.46c-1.37.61-1.65.49-2.23-.92-.35-.85-.32-1,.35-1.63s.64-.84.27-1.69c-.66-1.52-1.35-3-2-4.54-.57-1.27-1.15-2.54-1.7-3.82C136.9,172.79,136.48,172.31,135.92,172.46Z"/><path d="M165.52,155.27a5.22,5.22,0,0,1-.23.63,2.43,2.43,0,0,1-.4.45c-1.23,1.27-1.32,1.27-2.63.12-.69-.61-1.17-.64-1.82,0-.88.81-1.73,1.65-2.56,2.5s-.7,1.16,0,1.88c.38.42.78.82,1.19,1.21.72.67,1.2.68,1.89,0s1.32-1.4,2-2.08c.81-.84,1.16-.84,2,0a5.66,5.66,0,0,1,.42.43,1,1,0,0,1-.05,1.65c-.58.59-1.21,1.14-1.81,1.7-.22.21-.45.41-.64.63a1,1,0,0,0,0,1.51,26.21,26.21,0,0,0,1.89,1.91,1,1,0,0,0,1.5,0q1.57-1.45,3-3a1,1,0,0,0,0-1.52c-.25-.3-.56-.57-.81-.87a1,1,0,0,1,0-1.42,8,8,0,0,1,.92-.92.94.94,0,0,1,1.42,0q1.6,1.56,3.13,3.19a.85.85,0,0,1,0,1.26,4.52,4.52,0,0,1-.48.5l-9.37,9.21-.14.14c-1.4,1.49-1.79.81-2.71-.15a1,1,0,0,1-.16-1.35c.46-.88.42-1.12-.28-1.83q-3.19-3.27-6.42-6.53c-.72-.72-.94-.78-1.82-.3a1,1,0,0,1-1.33-.21c-1.1-1.07-1.47-1.39-.11-2.7,3-2.92,6-5.9,9-8.85l.29-.27c1-1,1.27-1,2.28,0,.74.76,1.5,1.51,2.22,2.28A5.81,5.81,0,0,1,165.52,155.27Z"/><path d="M84.91,68.18c.44.45,1,.94,1.42,1.49a.8.8,0,0,1-.1,1.24c-1.42,1.43-2.87,2.85-4.34,4.24a.92.92,0,0,1-1.41,0c-.46-.42-.87-.89-1.35-1.39l.78-1.08c-.92-1.06-1.69-1.11-2.67-.18-.81.78-1.61,1.57-2.41,2.36-1,1-1.06,1.5-.06,2.8l1.11-.79a4.81,4.81,0,0,1,1.63,1.54.86.86,0,0,1-.13,1.18c-1.39,1.37-2.78,2.74-4.2,4.09-.46.43-.76.42-1.23,0s-1-1-1.4-1.39c0-.17,0-.22,0-.24.82-.73.61-1.48.2-2.37-1.84-4-3.62-8-5.41-12-.11-.24-.22-.48-.32-.73a1.11,1.11,0,0,1,.28-1.28Q67,64,68.59,62.42a1.19,1.19,0,0,1,1.54-.14c1.63.82,3.27,1.62,4.9,2.43,2.55,1.26,5.11,2.51,7.65,3.81.69.35,1.27.52,1.81-.19a.5.5,0,0,1,.17-.11ZM69.79,67l-.24.21c.79,1.62,1.51,3.28,2.43,4.83a.9.9,0,0,0,1.4.15,8.67,8.67,0,0,0,.94-.88c.75-.81.68-1.45-.27-2s-1.68-.93-2.52-1.38Z"/><path d="M86.16,54.58a84.79,84.79,0,0,0,7.67,8.51,21.64,21.64,0,0,0-.38-3.74c-.11-1.29-.33-2.56-.5-3.85s-.3-2.48-.46-3.82l-1.55.42c-.3-.68-.64-1.32-.87-2s0-.88.65-1.18c.78-.38,1.57-.71,2.36-1.07s1.8-.83,2.72-1.21,1.26-.23,1.68.63c.19.38.35.78.52,1.18a2.58,2.58,0,0,1,.06.37c-1.11.93-1.08.93-1,2.5.24,2.74.45,5.48.67,8.22.13,1.65.29,3.3.4,5,.07,1.16,0,1.26-1.06,1.74s-2.29,1-3.45,1.55-1.29.43-2.09-.4q-4.77-4.87-9.51-9.77c-.12-.12-.24-.23-.35-.36-.36-.41-.75-.64-1.29-.31a2.17,2.17,0,0,1-.45.12A4.5,4.5,0,0,1,79,55a.88.88,0,0,1,.59-1c.6-.29,1.21-.56,1.81-.83,1.18-.53,2.35-1.08,3.54-1.59,1-.42,1.25-.3,1.71.66.21.45.56.95.49,1.37S86.5,54.25,86.16,54.58Z"/><path d="M172,111.19c.12-1.18.19-2.37.36-3.55a1.78,1.78,0,0,1,1.81-1.77,10.68,10.68,0,0,1,1.79-.08,1.47,1.47,0,0,1,1.5,1.2,4.45,4.45,0,0,1,.13.88c0,1,0,1.08-1,1.18a.88.88,0,0,0-.9.86,9.42,9.42,0,0,0,.13,3.85,3.06,3.06,0,0,0,.81,1.32,1.54,1.54,0,0,0,2.48-.56,6.49,6.49,0,0,0,.38-1.23c.34-1.35.63-2.71,1-4.05a11.5,11.5,0,0,1,.74-1.95c.94-1.94,2.56-2.66,4.78-2.41a5,5,0,0,1,4,2.89,10.14,10.14,0,0,1,1,3.52,18.46,18.46,0,0,1-.13,5.65,1.83,1.83,0,0,1-1.91,1.67c-.43,0-.86.08-1.29.1a1.62,1.62,0,0,1-1.83-1.54s0-.07,0-.1c-.19-1.4-.19-1.41,1.21-1.72a.7.7,0,0,0,.61-.56,6.24,6.24,0,0,0-.2-3.53,1.67,1.67,0,0,0-1.57-1.18,1.42,1.42,0,0,0-1.41,1.08c-.36,1.06-.61,2.16-.92,3.24-.34,1.24-.61,2.51-1.07,3.71a4.1,4.1,0,0,1-3.13,2.79c-2.55.47-4.56,0-6-2.72a12.77,12.77,0,0,1-1.22-4.89c-.06-.69,0-1.39,0-2.09Z"/><path d="M98.93,173.94a1.17,1.17,0,0,0-.61-1.13c-.91-.57-.93-.65-.71-1.68a4.1,4.1,0,0,1,.1-.48c.23-.8.57-1,1.39-.85,2.07.43,4.15.87,6.22,1.32l7.19,1.55.57.15c.65.23.89.55.76,1.19-.26,1.34-.55,2.67-.88,4-.19.77-.52.93-1.32.78a9.7,9.7,0,0,1-1.07-.23c-.78-.23-1-.53-.84-1.31,0-.29.12-.58.14-.88,0-.67-.14-1-.77-1.21-1.34-.34-2.71-.63-4.07-.89a1,1,0,0,0-1.15.73,19.38,19.38,0,0,0-.56,2.62c-.1.7.18,1.06.88,1.22,1,.23,2.08.4,3.12.6s1.1.47,1,1.38a1.23,1.23,0,0,1,0,.19c-.22,1.45-.58,1.69-2,1.36l-2.22-.53c-1.31-.31-1.69-.08-2,1.19-.13.55-.27,1.1-.35,1.66a1.09,1.09,0,0,0,.88,1.43c.49.17,1,.3,1,.9a2.69,2.69,0,0,1-.57,1.95,1,1,0,0,1-.8.23c-2.4-.49-4.8-1-7.19-1.54-.67-.15-.87-.48-.82-1.16a7.81,7.81,0,0,1,.22-1.07,1,1,0,0,1,1-.81c1-.1,1.19-.25,1.41-1.21.66-3,1.3-5.95,1.94-8.93C98.9,174.26,98.91,174.06,98.93,173.94Z"/><path d="M132.67,175.85a4.39,4.39,0,0,1-.07,1c-.19.62-.77.7-1.3.7s-1.38.33-1.78-.45a3,3,0,0,1-.2-1c-.16-1.08-.63-1.43-1.7-1.3l-3.06.35c-1.2.13-1.58.58-1.45,1.76.06.56.11,1.12.2,1.68.15,1,.5,1.33,1.52,1.24.79-.06,1.58-.19,2.36-.32,1.67-.27,2,0,2.07,1.69,0,1-.22,1.23-1.19,1.31s-1.78.13-2.67.21c-1.2.11-1.54.54-1.41,1.77.07.59.11,1.19.22,1.77s.43,1,1.15,1c.5,0,1.11-.09,1.3.46a5.46,5.46,0,0,1,.25,1.93c0,.43-.44.61-.87.66-.79.09-1.57.21-2.36.3-1.55.17-3.09.36-4.64.48-1.06.08-1.34-.22-1.44-1.29s-.07-1.26.94-1.77a1.12,1.12,0,0,0,.67-1.21c-.09-1-.17-1.91-.28-2.87-.24-2.1-.49-4.21-.73-6.31-.14-1.2-.23-1.34-1.35-1.63A1,1,0,0,1,116,175c-.3-1.74-.08-2,1.68-2.19,2.67-.28,5.33-.62,8-.93l5.32-.6a1,1,0,0,1,1.24.95C132.4,173.44,132.52,174.63,132.67,175.85Z"/><path d="M57.07,111c.43,0,.86,0,1.29,0a1.23,1.23,0,0,0,1.29-.88,1.76,1.76,0,0,1,2.54-1,.88.88,0,0,1,.54.87c0,.53,0,1.06,0,1.59-.1,1.85-.22,3.71-.35,5.56-.07,1-.37,1.26-1.38,1.23-1.17,0-1.42-.23-1.71-1.34A1.21,1.21,0,0,0,58,116c-2-.14-4-.27-6-.39-1.12-.07-2.25-.15-3.37-.18A1.43,1.43,0,0,0,47,117.17a1.2,1.2,0,0,0,1,1.2c.35.09.72.1,1.08.16.7.1.92.31.93,1,0,2.2-.11,2.32-2.19,2.22-1,0-2-.12-3-.19-.81-.06-1.11-.37-1.1-1.21,0-.67.08-1.33.12-2l.45-8.43c.09-1.52.15-3,.23-4.57.07-1.11.37-1.4,1.49-1.36s2.44.12,3.67.2c.78.06,1.07.35,1.09,1.11a8,8,0,0,1,0,1.2c-.06.73-.36,1-1.07,1-.2,0-.4,0-.59,0-1.06,0-1.59.44-1.66,1.42s.41,1.5,1.48,1.59,2.18.13,3.28.19l4.86.24Z"/><path d="M70,169.25c-.53.58-1,1.14-1.52,1.62a1.42,1.42,0,0,1-1.59.16,2.42,2.42,0,0,1-.58-.38,17,17,0,0,1-4.58-5.81,7.12,7.12,0,0,1,1.15-8.15,15.14,15.14,0,0,1,5.3-3.94,7.41,7.41,0,0,1,8.2,1.09,15.32,15.32,0,0,1,4.41,6c.31.71.24,1-.38,1.46-.94.74-1.89,1.46-2.86,2.16-.75.53-1.18.44-1.78-.29-1.15-1.41-1.13-1.63.25-2.77.6-.51.67-.63.23-1.23a9.06,9.06,0,0,0-1.59-1.74,3,3,0,0,0-2.83-.54,10.19,10.19,0,0,0-5.49,3.9,3.33,3.33,0,0,0-.3,3.49,11,11,0,0,0,2.11,3C68.77,167.93,69.37,168.55,70,169.25Z"/><path d="M131,44.69l.57.14,5.56,1.5a3.81,3.81,0,0,1,.57.19.89.89,0,0,1,.62,1.09,7.45,7.45,0,0,1-.35,1.25,1,1,0,0,1-1,.67c-1,0-1.21.18-1.49,1.21-.69,2.49-1.36,5-2,7.48-.14.55-.31,1.09-.42,1.64-.15.8.07,1.21.85,1.44,1.26.39,2.54.74,3.83,1.06a1.09,1.09,0,0,0,1.38-.82c.15-.4.23-.83.38-1.24.25-.7.56-.88,1.28-.72A8.9,8.9,0,0,1,142,60a.88.88,0,0,1,.62,1.18c-.37,1.44-.75,2.88-1.18,4.31-.23.81-.63,1-1.55.74-1.86-.48-3.71-1-5.56-1.5l-7.87-2.15c-.52-.14-1.1-.25-1.14-.91a2.47,2.47,0,0,1,.66-2,1.35,1.35,0,0,1,.84-.18,1.23,1.23,0,0,0,1.29-1c.84-3.07,1.69-6.13,2.51-9.21.22-.81.07-1.1-.64-1.58s-.76-.63-.55-1.49a7.32,7.32,0,0,1,.23-.76C129.93,44.79,130.19,44.64,131,44.69Z"/><path d="M56.63,135.63a3.12,3.12,0,0,1,3.14,3.25,3.23,3.23,0,0,1-3.25,3.2,3.29,3.29,0,0,1-3.17-3.3A3.18,3.18,0,0,1,56.63,135.63Z"/><path d="M178.3,135.63a3.18,3.18,0,0,1,3.21,3.22,3.29,3.29,0,0,1-3.25,3.23,3.2,3.2,0,0,1-3.17-3.27A3.1,3.1,0,0,1,178.3,135.63Z"/><path d="M183.58,95.66c.07-.25.12-.44.18-.63a2.17,2.17,0,0,1,3.54-.92,2.49,2.49,0,0,1-.56,4.14,4.76,4.76,0,0,1-3.48.22,7.48,7.48,0,0,1-3-1.61c-.3-.27-.76-.5-.41-1a1.18,1.18,0,0,1,1.5-.61,12.5,12.5,0,0,0,1.3.45A4.57,4.57,0,0,0,183.58,95.66Z"/><path d="M93.73,100a1,1,0,0,1-.23-.22c0-.06,0-.16.14-.26l.06.51Z"/><path d="M143.64,102.91c.68-.12.56-.6.55-1.06l.7-.06c-.06-.14-.08-.25-.15-.31a11.68,11.68,0,0,1-1.21-1,12.06,12.06,0,0,1-1.21-1.54c-.09-.14,0-.42.06-.85l1.2,1c.39.35.78.7,1.19,1s.75.64.7,1.23a1.45,1.45,0,0,0,.2.65c.22.52.44,1,.7,1.52a5.12,5.12,0,0,0,.58.76l1-1.07-.54-.91c0-.09.06-.17.1-.19,1.18-.67,1.55-.53,1.57.8,0,.72.52,1.12.65,1.68.82.24,1.65-.11,2.42.3.2.1.52,0,.78,0s.56-.08.9-.13a3.29,3.29,0,0,1-1,2.87c-.13.18-.6.13-.92.14-.48,0-1,0-1.45,0a2.25,2.25,0,0,1-.78,0c-.9-.32-1.8-.64-2.66-1s-1.36-.24-1.74.69c-.12.27-.3.51-.59.36-.54-.29-1.18-.36-1.63-.89a3.72,3.72,0,0,0-1.17-.68c-.4-.21-.81-.39-1.12-.53l.21-1.82a1.1,1.1,0,0,0-1.16-.41,6.14,6.14,0,0,1-2,0,5.25,5.25,0,0,0-3.18.47,3.29,3.29,0,0,1-1.93.16c-.15,0-.28-.22-.41-.33.14-.11.26-.27.42-.32a7.71,7.71,0,0,0,1.32-.31,1.62,1.62,0,0,0,1.08-1.4,1.36,1.36,0,0,1,1-1c.47-.19.9-.38,1-1a.46.46,0,0,1,.68-.37,2,2,0,0,0,1.89-.17c.72-.3.76-.22,1.21.36a11.06,11.06,0,0,0,1.51,1.55C143,101.55,143.71,102,143.64,102.91Zm-3.8-.6c.62-.12.7-.47.65-.84,0-.17-.23-.43-.37-.44a.41.41,0,0,0-.48.48A6.65,6.65,0,0,0,139.84,102.31Zm2.16.63-.12.31,1.27.71.14-.93Zm-1.85-2.29c.33-.44.33-.44.07-.81C139.94,100.09,139.83,100.34,140.15,100.65Zm8.49,4.62c-.42-.23-.67-.42-1-.16C147.87,105.48,148.15,105.46,148.64,105.27Zm3.64.26v.27l.58-.09v-.18Z"/><path d="M151.89,98.21c.94.08,1,.9,1.41,1.34,1.8-.22,1.8-.22,3.27,1.09a2.11,2.11,0,0,1,.23.19c.26.21.58.42.44.8a.79.79,0,0,1-1,.42,8.22,8.22,0,0,1-1.79-.53,2.53,2.53,0,0,0-2.18-.15,3,3,0,0,1-1.36.1.67.67,0,0,1-.62-1A5.1,5.1,0,0,1,151.89,98.21Z"/><path d="M154.36,98.52a1,1,0,0,1,.23-.17c.34-.11.69-.2,1-.3a.59.59,0,0,1-.26.85c-.39.25-.71,0-1-.1Z"/><path d="M91.89,146.79v-.66l.16,0-.18.61Z"/><path d="M95.06,116.17s.08.11.07.15-.08.06-.13.09-.09-.1-.08-.15S95,116.2,95.06,116.17Z"/><path d="M98.59,78.79l-.84-.29C98.23,78.27,98.39,78.39,98.59,78.79Z"/></g></g></svg>