<svg xmlns="http://www.w3.org/2000/svg" viewBox="0 0 347.18 75.3"><g id="Слой_2" data-name="Слой 2"><g id="Слой_1-2" data-name="Слой 1"><polygon points="72.56 1.47 56.31 57.32 41.5 12.31 26.68 57.32 10.39 1.47 0 1.47 21.89 73.72 30.55 73.72 41.5 38.49 52.44 73.72 61.1 73.72 82.99 1.47 72.56 1.47"/><path d="M95.11,30a20.64,20.64,0,0,0-15.4,6.49,22,22,0,0,0-6.29,15.92,22.18,22.18,0,0,0,6.32,16,21.31,21.31,0,0,0,30.78,0,22.23,22.23,0,0,0,6.28-16,22,22,0,0,0-6.28-15.92A20.67,20.67,0,0,0,95.11,30Zm9.14,32.36a12.48,12.48,0,0,1-18.22,0,14.2,14.2,0,0,1-3.59-10A14,14,0,0,1,86,42.58a12.61,12.61,0,0,1,18.22,0,14,14,0,0,1,3.59,9.86A14.2,14.2,0,0,1,104.25,62.39Z"/><polygon points="154.45 32.02 143.81 32.02 130.37 48.47 130.37 1.47 121.31 1.47 121.31 73.72 130.37 73.72 130.37 56.61 144.73 73.72 155.78 73.72 137.45 52.23 154.45 32.02"/><path d="M202,9.82a25.05,25.05,0,0,1,11.2,2.47,26.18,26.18,0,0,1,9,7.41l6.78-7.28A31.41,31.41,0,0,0,217.22,3.3,36.15,36.15,0,0,0,202,.1q-15.48,0-25.71,10.71T166,38q0,15.93,10.31,26.62t25.83,10.7a35.66,35.66,0,0,0,15-3.18,32.86,32.86,0,0,0,11.77-8.94l-6.78-7.28a25.07,25.07,0,0,1-8.91,7.18,25.45,25.45,0,0,1-11.15,2.49,24.14,24.14,0,0,1-18.38-7.89q-7.38-7.89-7.38-19.7,0-12.07,7.2-20.12A23.69,23.69,0,0,1,202,9.82Z"/><path d="M264.75,36.8a22.09,22.09,0,0,0-6-4.5A15.1,15.1,0,0,0,252.23,31,20.22,20.22,0,0,0,237,37.26a21.9,21.9,0,0,0-6.06,15.79,22.61,22.61,0,0,0,5.78,15.81,18.69,18.69,0,0,0,14.39,6.34,16.88,16.88,0,0,0,12.67-5.5l1-1v5h9.06V31.92h-9.06Zm0,21.49A12.64,12.64,0,0,1,260,64.35a12.85,12.85,0,0,1-7.46,2.29,11.36,11.36,0,0,1-8.83-3.79,14.05,14.05,0,0,1-3.44-9.8,13.36,13.36,0,0,1,3.41-9.47,11.54,11.54,0,0,1,8.86-3.67,13,13,0,0,1,7.54,2.19A12.59,12.59,0,0,1,264.75,48Z"/><path d="M334.83,65a13.67,13.67,0,0,1-6.64,1.4,12.05,12.05,0,0,1-12.78-11.3h31.77a42.62,42.62,0,0,0-1.09-10.88,20.3,20.3,0,0,0-3.59-7,18.81,18.81,0,0,0-6.8-5.29A20.39,20.39,0,0,0,327,30a19.36,19.36,0,0,0-14.79,6.32q-5.88,6.32-5.88,15.88,0,10,6.18,16.32t16,6.34a21.26,21.26,0,0,0,11.56-3,17.44,17.44,0,0,0,7-8.63l-8.05-2.8A10.23,10.23,0,0,1,334.83,65Zm-15.5-24.39a12.11,12.11,0,0,1,7.74-2.37,11.38,11.38,0,0,1,7.46,2.45,10.59,10.59,0,0,1,3.69,6.72H315.41A11.18,11.18,0,0,1,319.33,40.65Z"/><path d="M317.93,27.67c-.09-4-1.58-8.29-4.93-10.53-.55-.36-2-1-3.27-1.59-2.08-1-3.81-1.73-5-2.23a20.48,20.48,0,0,0,11.8-3,20.27,20.27,0,0,0,6.78-6.87A16.49,16.49,0,0,0,315.47.22c-1.91-.25-4.88-.6-7.73,1s-4.5,4.39-5.63,7.34A21.59,21.59,0,0,0,295,9.71a15.28,15.28,0,0,0-5.73,3.69,13.35,13.35,0,0,0-3.39,5.73,35.09,35.09,0,0,0-1,9.49V32h-4.28l-2.19,8.55h6.47V73.72h9.16V40.57h9V32h-9V26.64q0-4.68,2.09-6.93t6.37-2.24h.5a27.32,27.32,0,0,0,1.87,5.23,9.85,9.85,0,0,0,5.82,4.12A29.59,29.59,0,0,0,317.93,27.67Z"/></g></g></svg>