<svg xmlns="http://www.w3.org/2000/svg" viewBox="0 0 275.14 159.26"><defs><style>.cls-1{fill:#000000;}</style></defs><g id="Слой_2" data-name="Слой 2"><g id="Layer_1" data-name="Layer 1"><path class="cls-1" d="M0,159.26V0H28.14V59.41c2-1,4-1.87,5.8-2.89a5.45,5.45,0,0,0,1.68-1.73,17.18,17.18,0,0,0,3-10c0-2.51-.06-5-.06-7.53,0-6.34.05-12.68.06-19,0-5.82,0-11.64,0-17.46,0-.27,0-.54,0-.81H275.14V159.22H246.76a31.12,31.12,0,0,1-.41-3.65q0-16,0-32v-.85H232.22v36.54H0Zm18.86-19.87V11.49c0-.21,0-.42,0-.62.07-.5-.12-.66-.64-.65-2.72,0-5.44,0-8.15,0a4.75,4.75,0,0,0-.53,0V148.84a5,5,0,0,0,.74.09c4.12.1,8.24.22,12.36.27,5.68.08,11.36.11,17,.14,9.67,0,19.34.1,29,.1q35.44,0,70.89-.06l6,0q16-.06,31.93-.12,8.63,0,17.26-.13,12.46-.13,24.93-.31c.78,0,1.56-.1,2.33-.15.06-1.14.16-2.2.16-3.26q.06-29.14.11-58.29,0-7.3,0-14.61l.09-34.3q0-6.82,0-13.66c0-1.45,0-2.9,0-4.35,0-.53.16-.74.74-.72,1.38,0,2.76-.05,4.14,0,2.62.08,5.26.08,7.86.34A22.08,22.08,0,0,1,248,25.54c5.27,4.69,8.15,10.43,8.14,17.57q0,50.58,0,101.16c0,1.57.15,3.14.23,4.71h9.19V10.64H48.68c0,.34,0,.65,0,1,0,3.14-.09,6.29-.1,9.43,0,8.34,0,16.67-.06,25A56.22,56.22,0,0,1,48,53.14a13.31,13.31,0,0,1-5,9.17,18.22,18.22,0,0,0-2,1.75c-1.64,1.68-1.69,1.36,0,3.06a27.13,27.13,0,0,1,4.76,6.4,25.07,25.07,0,0,1,2.77,11.63c0,7.2,0,14.4,0,21.6,0,9.28,0,18.57,0,27.85,0,1.6-.14,3.19-.22,4.78H38.65c-.06-1.39-.17-2.74-.17-4.1q-.06-24.28-.09-48.57a21.85,21.85,0,0,0-2-9.4c-1.67-3.57-4.71-5.25-8.45-6.14v68.22Zm213.76-27.28c.27,0,.45,0,.63,0h12.09c.32,0,.66.06.71-.41a24.41,24.41,0,0,0,.27-2.56q0-33.21,0-66.43a13.43,13.43,0,0,0-.2-2.36,13.23,13.23,0,0,0-5.2-8,11,11,0,0,0-7.32-2.77c-1,0-1,0-1,1v81.52Z"/><path class="cls-1" d="M203.2,129.64V19.89h9.2c0,.29,0,.55,0,.82q.11,8.58.19,17.18.06,5.49.1,11,.07,12.33.14,24.65l0,7.48q0,13.85.09,27.71c0,3.44,0,6.89,0,10.33q0,6.42-.14,12.83c0,2.31-.17,4.61-.23,6.92,0,.6-.21.89-.87.88-3.1,0-6.21.16-9.29,0a24,24,0,0,1-17.77-8.79l-.24-.26c-1.1,1-2.17,2-3.29,3a24.33,24.33,0,0,1-12.38,5.74,48.7,48.7,0,0,1-12.65.21,3.21,3.21,0,0,1-.36-.07V19.8l.58-.06c2.72,0,5.43,0,8.15,0,.52,0,.68.17.67.66,0,1.2,0,2.4,0,3.6,0,3.85,0,7.7,0,11.54q0,14.47.1,28.94,0,6.15,0,12.3,0,24.63.1,49.25c0,1,.11,1.9.12,2.85,0,.48.29.48.62.5a11.48,11.48,0,0,0,8.25-2.67,11.69,11.69,0,0,0,4.2-7.28,30,30,0,0,0,.72-6.18c0-5.39,0-10.78.05-16.17q0-6.9,0-13.79,0-12.73,0-25.48,0-18,.11-36V19.89H189c0,.28.06.56.06.84q0,5.26.05,10.53.06,13.48.1,27c0,3.51,0,7,0,10.53q0,17.89.06,35.8c0,3.55-.1,7.11,0,10.66a15.4,15.4,0,0,0,6,12.19,10.78,10.78,0,0,0,6.09,2.23C201.92,129.68,202.5,129.64,203.2,129.64Z"/><path class="cls-1" d="M87.37,19.74V23q0,11.44,0,22.89c0,9.42-.09,18.84-.05,28.26a24.43,24.43,0,0,1-6.9,17.65,21.85,21.85,0,0,1-7.32,5.06c-1.45.62-2.92,1.22-4.39,1.79a.88.88,0,0,0-.66,1q0,15.8,0,31.59v8.12H58.36v-.7q0-59.07,0-118.15c0-.54.06-.79.71-.79q13.8,0,27.6,0Zm-19,68a.92.92,0,0,0,.22,0c4.84-1.26,9.16-6.62,9.31-11.61C78,73.6,78,71,78,68.49Q78,60.74,78,53q0-11.07,0-22.15c0-.39-.06-.79-.09-1.18H68.37Z"/><path class="cls-1" d="M97.66,19.88h8.87V60.24c1.62.6,3.18,1.11,4.7,1.76,5.13,2.17,9.39,5.4,12.17,10.36a22.5,22.5,0,0,1,2.86,9.26c.26,3.35.42,6.72.45,10.09.08,7.92.07,15.85.08,23.77q0,9.69-.07,19.36c0,1.51-.13,3-.2,4.55H97.88c-.06-1.26-.14-2.49-.17-3.73q-.17-6.89-.27-13.77-.1-6.45-.14-12.9-.06-8.08-.1-16.17,0-4.62,0-9.24c0-7.61-.07-15.21-.06-22.82q0-13.38.14-26.76c0-4,.17-8.06.27-12.08C97.53,21.25,97.61,20.58,97.66,19.88Zm18.88,109.74a19.07,19.07,0,0,0,.23-2.09c0-5.39.09-10.78.09-16.17,0-5.57,0-11.14,0-16.71,0-1.7,0-3.4,0-5.09a64.72,64.72,0,0,0-.32-7.11,14.27,14.27,0,0,0-4-8.41A12.45,12.45,0,0,0,107,71v58.61Z"/><path class="cls-1" d="M137,139.52V19.89h8.51v.71q0,59.07,0,118.14c0,.63-.16.8-.79.79-2.29,0-4.58,0-6.86,0Z"/></g></g></svg>