<svg xmlns="http://www.w3.org/2000/svg" viewBox="0 0 335.17 133.35"><g id="Слой_2" data-name="Слой 2"><g id="Слой_1-2" data-name="Слой 1"><path d="M167.82,36.36c-.36.39-.72.78-1.07,1.18L124.07,86.35c-.18.21-.37.41-.54.63a2.18,2.18,0,0,0,.27,3.38c1.7,1.55,3.43,3.06,5.15,4.58l11.68,10.33a7.85,7.85,0,0,1-5.33,13.83,8,8,0,0,1-5.22-2.16q-8.1-7.18-16.22-14.35a7.12,7.12,0,0,0-1-.78,2.16,2.16,0,0,0-2.8,3.24,9.66,9.66,0,0,0,.8.76A6.75,6.75,0,0,1,102,115.9c-.4-.32-.75-.68-1.16-1a2.12,2.12,0,0,0-2.88.14c-.23.22-.44.47-.65.71L82.63,132.29l-.27.31c-1,1.09-.79.88-1.68.11A74.78,74.78,0,0,1,57.55,97.17,76.15,76.15,0,0,1,54.41,75c0-30.51,19-57.61,46.06-69A75.24,75.24,0,0,1,120.05.67,73.43,73.43,0,0,1,137.39.38a74.47,74.47,0,0,1,42,18.18A4.58,4.58,0,0,0,183.17,20c1.05-.12,2.12,0,3.17,0,.72,0,1,.18,1.21.93.83,3.39,1.74,6.75,2.62,10.13q3.38,13.13,6.76,26.26a.72.72,0,0,0,.13.19c.35-.1.33-.41.39-.67l5.79-22.38c1.16-4.49,2.34-9,3.46-13.47a1.1,1.1,0,0,1,1.3-1c5.75,0,11.5,0,17.25,0,1,0,1,0,1.06,1.07,0,.23,0,.46,0,.69q0,43.61,0,87.21c0,1.89.19,1.69-1.7,1.69H210c-1.42,0-1.43,0-1.43-1.42v-40l-.27-.07-11,34.66H197L186.11,69.13l-.27,0v1.41q0,19.24,0,38.5c0,1.59.31,1.53-1.56,1.53h-14.9c-1.31,0-1.26.12-1.26-1.28V36.49ZM76,55.66c.55.23,1.09.49,1.65.68s.62.35.41.81c-.11.24-.18.52-.27.78a53.2,53.2,0,0,0-3,16c0,1.2,0,1.21,1.17,1.19,4.78-.1,9.56-.3,14.34-.49,6.47-.27,13-.43,19.43-.63,4-.12,7.9-.21,11.85-.34.44,0,.93.12,1.31-.25-.17-.48-.6-.7-.93-1L101.21,54.08,88,42.39c-1-.87-.85-1.06-1.83.22-.67.87-1.32,1.76-2,2.65L82.34,44.2c-.52-.58-1.32-.82-1.84-1.48.15-.23.29-.46.44-.67A59.62,59.62,0,0,1,94.57,28.18a61.11,61.11,0,0,1,9.8-5.79c.67-.33,1-.23,1.21.45a14.69,14.69,0,0,0,.79,1.59,5.08,5.08,0,0,0,.15.52c.48,1.2.49,1.2-.7,1.77a52.57,52.57,0,0,0-11.45,7.35A37.18,37.18,0,0,0,90,38.19l36.35,32.15.26-.15-4.26-48.27a48.4,48.4,0,0,0-10.16,2.2c-.56.18-1.13.65-1.69.49s-.48-1.1-.9-1.58c-.23-.64-.44-1.3-.69-1.93-.16-.4,0-.59.34-.71l.9-.33a61.07,61.07,0,0,1,22.4-3.15l.55,0c.41,0,.56.23.54.62-.05.73-.1,1.46-.14,2.19a2.59,2.59,0,0,0-.1.53c0,1.43-.24,1.26-1.36,1.17a32,32,0,0,0-4.27-.05c-.88,0-.9.08-.81,1,.28,3.25.58,6.5.86,9.74.51,5.82,1,11.63,1.5,17.44q.78,9,1.59,18c.1,1.11.24,2.21.4,3.67.38-.49.54-.72.72-.92l31.32-35.79c.68-.78.67-.79-.16-1.47l-.43-.34a53.86,53.86,0,0,0-21.93-10.11c-1.82-.38-1.81-.4-1.69-2,.37-.88.16-1.92.73-2.77a58.94,58.94,0,0,1,24.36,10.38c.78.57,1.54,1.17,2.29,1.77.3.23.54.31.82,0l2.11-2.45c-23.13-19.72-61.95-20.2-85.92,6.15s-20.16,65.52,3.14,87.2l1.75-2a63.13,63.13,0,0,1-5.8-6.46c.31-.57.89-.74,1.24-1.15l2.16-1.58a1.45,1.45,0,0,1,.66.6c1.3,1.61,2.7,3.13,4.15,4.61.47.49.78.46,1.2,0,.76-.93,1.56-1.82,2.38-2.69a6.67,6.67,0,0,1,9.31-.64c.39.32.75.68,1.17,1a2.11,2.11,0,0,0,3-.32,2.21,2.21,0,0,0,0-2.9c-.3-.35-.67-.63-1-1a6.67,6.67,0,0,1,2.23-10.78,6.51,6.51,0,0,1,7.28,1.31l16.32,14.42a8.94,8.94,0,0,0,.95.8,3.32,3.32,0,0,0,4.28-5c-.48-.5-1-.94-1.53-1.39-5.2-4.6-10.41-9.18-15.59-13.81-3.15-2.8-3.36-6.7-.6-9.91,1.34-1.57,2.72-3.12,4.07-4.68a2.57,2.57,0,0,0,.71-1c-1.9,0-3.73,0-5.55,0-6.75.22-13.5.5-20.25.72s-13.79.43-20.68.64c-.92,0-1.83.1-2.75.15s-.9.07-.83,1c0,.55.16,1.09.21,1.64A52.86,52.86,0,0,0,79.09,97.5a60.87,60.87,0,0,0,3.55,7c-.59.69-1.48.86-2,1.48l-1.67.87a1.79,1.79,0,0,1-.6-.78,58.93,58.93,0,0,1-8.08-27.6,58,58,0,0,1,3.2-21.81C74.05,55,74,55,75.63,55.54ZM219.64,23.32c-3,0-6.07,0-9.11-.05a1,1,0,0,0-1.21.95Q206.71,34.5,204,44.76c-1.2,4.67-2.39,9.34-3.62,14a3.3,3.3,0,0,1-3.32,2.77,3.45,3.45,0,0,1-3.26-2.84c-2.19-8.63-4.43-17.25-6.66-25.88-.73-2.84-1.49-5.68-2.2-8.53-.18-.75-.5-1.07-1.32-1a26,26,0,0,1-3.3,0,2.13,2.13,0,0,0-1.91.84c-2,2.31-3.94,4.61-6,6.84a3.68,3.68,0,0,0-1,2.71q0,35.88,0,71.75c0,.27,0,.55,0,.82,0,.94,0,1,1,1h8.41c1.77,0,1.58.11,1.58-1.54V69.1c0-.51,0-1,0-1.52A3.22,3.22,0,0,1,185,64.64a3.28,3.28,0,0,1,3.64,1.61,8.52,8.52,0,0,1,.53,1.41q3.18,10.11,6.35,20.24c.49,1.55,1,3.1,1.5,4.7.55-.27.53-.75.64-1.11q3.21-10,6.38-20.08c.49-1.53.93-3.08,1.46-4.59a3.3,3.3,0,0,1,6.41.68A12.8,12.8,0,0,1,212,69V105.3c0,.37,0,.74,0,1.11,0,.59.22.81.8.8,1,0,2,0,3,0,2.07,0,4.14,0,6.21,0,.73,0,1-.25.93-.95a2.84,2.84,0,0,1,0-.41V59.9a2.68,2.68,0,0,0,.15-1.48q0-16.06,0-32.13a8.54,8.54,0,0,0-.15-3A13.33,13.33,0,0,0,219.64,23.32ZM81.23,127c.46-.51.94-1,1.38-1.52,1.22-1.42,1.19-1-.1-2.33A67,67,0,0,1,66.57,53.24,67,67,0,0,1,122.94,9a66.1,66.1,0,0,1,15.14.17,66.42,66.42,0,0,1,33.56,14.13c.78.63.75,1,1.71-.17.59-.7,1.19-1.39,1.78-2.08-25.26-22.07-69.57-23.8-97.47,6.52C50,57.62,54.49,102.49,81.23,127Z"/><path d="M288.21,65.2V21.46c0-1.76-.16-1.51,1.57-1.51h15.73c1.3,0,1.26-.14,1.26,1.27V57.09c0,1.7-.26,1.55,1.53,1.55h6.76c1.75,0,1.51.16,1.51-1.58q0-17.52,0-35c0-2.07,0-2.07,2.12-2.07h15.18c1.33,0,1.29-.13,1.29,1.24,0,4.51,0,9,0,13.53q0,37.11,0,74.22c0,1.82.32,1.67-1.7,1.67H318.13c-.32,0-.64,0-1,0s-.6-.17-.59-.57,0-.74,0-1.11V76.23c0-.32,0-.64,0-1,0-.62-.15-.92-.84-.91q-4.08,0-8.14,0c-.7,0-.85.27-.84.9,0,1.93,0,3.86,0,5.79v27.87c0,.32,0,.65,0,1,0,.53-.19.73-.72.73-1.29,0-2.58,0-3.86,0H289.63c-1.6,0-1.42.08-1.42-1.4Zm43.51,41.94a3.15,3.15,0,0,0,.12-1.49V45.91q0-10.47,0-21c0-1.88.2-1.65-1.72-1.66h-8.55c-1.77,0-1.6-.21-1.6,1.64V58c0,2.7-1.25,4-3.95,4-1.38,0-2.76,0-4.14,0-1.56,0-3.13,0-4.69,0-2.47-.06-3.72-1.34-3.74-3.77,0-.6,0-1.2,0-1.8q0-15.8,0-31.59c0-1.81.19-1.58-1.64-1.59h-8.55c-1.91,0-1.68-.24-1.68,1.69q0,40.27,0,80.56v.69c0,.94,0,1,1,1h9.79c1,0,1.06,0,1.08-1v-1q0-15.18,0-30.35c0-2.49,1.32-3.8,3.84-3.81,2.94,0,5.89,0,8.83,0,2.49,0,3.84,1.35,3.85,3.82V106c0,1.17,0,1.18,1.22,1.18h7A6,6,0,0,0,331.72,107.14Z"/><path d="M52.19,20a2.65,2.65,0,0,1,.17,1.42q0,44,0,87.89c0,.23,0,.46,0,.69,0,.45-.15.69-.63.66-.23,0-.46,0-.69,0H35.32c-1.41,0-1.42,0-1.41-1.43Q34,73.93,34,38.69A4.46,4.46,0,0,0,34,37.06c-3-.27-4.41.67-5.2,3.49a68.82,68.82,0,0,0-1.58,8.67Q25.7,59.38,24.23,69.53C23.45,75,22.69,80.45,21.91,85.9S20.36,96.63,19.59,102q-.51,3.61-1,7.23c-.17,1.37-.16,1.38-1.6,1.38H.59c-.48,0-.65-.18-.57-.68.27-1.63.5-3.26.75-4.9Q2.11,96.6,3.45,88.16c1-6.12,2-12.24,2.94-18.36S8.25,57.54,9.27,51.43c1.14-6.88,1.94-13.83,3.52-20.63a16.65,16.65,0,0,1,1.61-4.23A12.11,12.11,0,0,1,24,20.18,34.44,34.44,0,0,1,28.51,20H52.19ZM48.94,42.29a5.17,5.17,0,0,0,.07-.55V23.94c0-.45-.18-.68-.65-.65-.23,0-.46,0-.69,0-6.72,0-13.43,0-20.15,0a21.9,21.9,0,0,0-3.43.24,8.73,8.73,0,0,0-6.83,4.78,19.72,19.72,0,0,0-1.7,5.5c-1.3,6.63-2.19,13.33-3.27,20C11,61.65,9.83,69.51,8.59,77.36c-1.42,9-2.88,18-4.29,26.94a7.32,7.32,0,0,0-.24,2.9c3.6,0,7.13,0,10.67,0,.7,0,.8-.35.88-.93q.84-6.21,1.74-12.42c.78-5.5,1.59-11,2.38-16.5.61-4.18,1.2-8.37,1.8-12.55q1.17-8.19,2.35-16.37a77.28,77.28,0,0,1,1.59-8.67,8.1,8.1,0,0,1,2.81-4.62,8.1,8.1,0,0,1,4.23-1.47c3.66-.34,4.88.74,4.88,4.42q0,33.66-.08,67.33v.69c0,1.06,0,1.07,1.06,1.08h7.86c.69,0,1.38,0,2.07,0s.75-.21.72-.74c0-.32,0-.64,0-1,0-5.34,0-10.67,0-16,0-1.33,0-2.66-.06-4q0-13.64,0-27.26Q49,50.27,48.94,42.29Z"/><path d="M233.69,65.11q0-16.35,0-32.69a17.07,17.07,0,0,1,.65-5.17c1.29-4.12,4.16-6.35,8.33-7a23.59,23.59,0,0,1,3.85-.28c7.26,0,14.53,0,21.79,0a20.77,20.77,0,0,1,4.51.49c4.42,1,6.77,3.93,7.69,8.21a14.42,14.42,0,0,1,.28,3q0,33.11,0,66.21a18.89,18.89,0,0,1-.51,4.23c-1,4.47-4,7-8.28,8.07a17.89,17.89,0,0,1-4.38.43q-10.33,0-20.69,0a16.6,16.6,0,0,1-6.35-1c-4.1-1.68-6.19-4.86-6.7-9.17a30.94,30.94,0,0,1-.2-3.85Q233.71,80.84,233.69,65.11Zm3.39-.19q0,15.85,0,31.72c0,1,0,2.11.11,3.17.33,3.61,2.11,5.9,5.37,6.92a9.14,9.14,0,0,0,2.7.44h24a5.77,5.77,0,0,0,.83,0c4.08-.58,6.4-2.64,7.07-6.4a18.45,18.45,0,0,0,.29-3.15q0-32.82,0-65.65a13.24,13.24,0,0,0-.24-2.6c-.57-2.91-2.08-5-5.12-5.62a18.33,18.33,0,0,0-4-.41q-10.89,0-21.79,0a22.56,22.56,0,0,0-3.29.24,6.41,6.41,0,0,0-5.65,5.27,14.85,14.85,0,0,0-.31,3.7Q237.08,48.71,237.08,64.92Z"/><path d="M163.3,112a6.74,6.74,0,1,1-6.72-6.76A6.73,6.73,0,0,1,163.3,112Zm-4.51,0a2.21,2.21,0,0,0-2.23-2.14,2.16,2.16,0,0,0-2.18,2.3,2.21,2.21,0,0,0,2.27,2.09A2.26,2.26,0,0,0,158.79,111.93Z"/><path d="M133.44,86.84l4.73-5.37c.28-.31.54-.65,1-.22,1.8,1.62,3.61,3.22,5.52,4.9-1.64,1.84-3.22,3.6-4.78,5.38-.42.47-.73.39-1.14,0C137,90,135.28,88.46,133.44,86.84Z"/><path d="M156,60.27a5.16,5.16,0,0,1,.07,10.32A5.16,5.16,0,1,1,156,60.27Zm0,1.84a3.26,3.26,0,0,0-3.36,3.27,3.34,3.34,0,1,0,3.36-3.27Z"/><path d="M119.17,127.65c-.09.12-.23.3-.38.47-1.15,1.3-2.32,2.6-3.45,3.92-.36.42-.64.55-1.11.12-1.32-1.2-2.67-2.38-4-3.54-.44-.38-.48-.66-.07-1.11,1.21-1.31,2.38-2.66,3.56-4,.31-.36.58-.51,1-.11,1.39,1.26,2.81,2.48,4.22,3.73A.5.5,0,0,1,119.17,127.65Z"/><path d="M123.27,123.48c1.24,1.1,2.36,2.1,3.49,3.09.36.31.52.58.13,1-.94,1-1.84,2-2.74,3.07-.3.35-.55.39-.9.07-1-.93-2-1.83-3.08-2.73-.41-.35-.38-.63,0-1C121.17,125.87,122.15,124.73,123.27,123.48Z"/><path d="M70.92,11.1a3.68,3.68,0,0,1-3.81-3.68,3.78,3.78,0,1,1,7.55-.08A3.72,3.72,0,0,1,70.92,11.1Zm-.1-6.17a2.36,2.36,0,0,0-2.35,2.51,2.41,2.41,0,0,0,4.82-.12A2.36,2.36,0,0,0,70.82,4.93Z"/><path d="M62.2,23.35l2.33-2.62c.75.67,1.41,1.28,2.1,1.87.43.36.31.63,0,1C65,25.85,65,25.86,62.93,24Z"/><path d="M87,93.65c-.26,0-.41-.17-.58-.31l-3.52-3.07c-.49-.42-.61-.82-.11-1.37,1-1.14,2.06-2.32,3.08-3.5.34-.4.67-.57,1.14-.14,1.19,1.07,2.41,2.11,3.61,3.17.36.32.64.65.19,1.14-1.13,1.26-2.23,2.54-3.35,3.81A.6.6,0,0,1,87,93.65Z"/><path d="M97.42,99.86a4.44,4.44,0,0,1,.6.4c.76.66,1.49,1.36,2.26,2,.36.31.38.56.06.91-.74.82-1.47,1.64-2.18,2.48-.39.45-.72.44-1.15,0-.73-.69-1.5-1.35-2.26-2-.34-.3-.57-.62-.2-1l2.29-2.58A.6.6,0,0,1,97.42,99.86Z"/><path d="M107.79,91.15a.64.64,0,0,1-.48-.22l-2.37-2.11c-.41-.36-.53-.7-.11-1.16.71-.77,1.4-1.57,2.1-2.37a.64.64,0,0,1,1-.05c.75.68,1.52,1.34,2.27,2,.45.39.59.76.11,1.26-.67.7-1.28,1.45-1.92,2.17C108.26,90.88,108.1,91.12,107.79,91.15Z"/><path d="M90.3,98.51a2.33,2.33,0,0,1-.24.42c-.73.84-1.46,1.66-2.2,2.48a.58.58,0,0,1-.94.07c-.82-.74-1.65-1.47-2.48-2.2-.4-.35-.36-.68,0-1,.68-.76,1.35-1.51,2-2.29.41-.48.76-.55,1.25-.08.7.67,1.45,1.28,2.16,1.93A1.17,1.17,0,0,1,90.3,98.51Z"/><path d="M144.65,29.53a5.77,5.77,0,0,1,.51.37L149.8,34c.49.43.44.81,0,1.27-1.32,1.47-2.61,2.95-3.91,4.44-.41.46-.79.72-1.37.19-1.49-1.35-3-2.68-4.54-4a.84.84,0,0,1-.09-1.38c1.41-1.57,2.8-3.15,4.2-4.73A.71.71,0,0,1,144.65,29.53Z"/><path d="M144.29,43.63a1.55,1.55,0,0,1,.33.21c.8.69,1.59,1.4,2.38,2.1.36.31.5.64.14,1.05l-2.2,2.48c-.28.33-.57.42-.93.09l-2.47-2.2c-.31-.28-.46-.58-.15-.94.76-.87,1.52-1.73,2.29-2.58A.57.57,0,0,1,144.29,43.63Z"/><path d="M103.82,39.93a1,1,0,0,1-.59-.32c-.76-.66-1.51-1.33-2.27-2-.42-.36-.51-.69-.09-1.14.69-.72,1.35-1.49,2-2.25a.78.78,0,0,1,1.28-.11c.78.7,1.57,1.39,2.36,2.08a.59.59,0,0,1,.06.95l-2.27,2.55A.61.61,0,0,1,103.82,39.93Z"/><path d="M77.17,53.08l-1.9-.95a52.49,52.49,0,0,1,3.31-6.47c.22-.36.45-.36.79-.14s.94.56,1.42.84c.52.56,1.66.63,1.7,1.39s-.65,1.27-1,1.92c-.61,1.17-1.24,2.35-1.79,3.56-.27.61-.57.72-1.15.4A10.58,10.58,0,0,0,77.17,53.08Z"/><path d="M107,68.42a.61.61,0,0,1-.2.54c-.93,1.06-1.87,2.12-2.8,3.19a.58.58,0,0,1-.94.08L99.85,69.4a.6.6,0,0,1,0-1l2.73-3.07c.28-.31.59-.45.95-.15l3.29,2.9A.85.85,0,0,1,107,68.42Z"/><path d="M93.54,66.92a1.72,1.72,0,0,1-.23.38c-.73.83-1.47,1.65-2.21,2.46-.32.36-.65.27-1,0l-2.59-2.26a.46.46,0,0,1-.06-.72c.82-.93,1.65-1.85,2.48-2.77a.46.46,0,0,1,.72,0c.9.79,1.79,1.58,2.67,2.39A.53.53,0,0,1,93.54,66.92Z"/><path d="M249.08,95.53a18.23,18.23,0,0,1-.36-5v-52a7.4,7.4,0,0,1,.29-2.72,4.51,4.51,0,0,1,4.27-3.12q3.87-.06,7.73,0a4.55,4.55,0,0,1,4.6,4.25,15.08,15.08,0,0,1,.05,1.65V91.91c0,.46,0,.92,0,1.38-.14,2.84-1.76,4.57-4.58,4.68-2.57.09-5.15,0-7.72,0a11.21,11.21,0,0,1-1.9-.3,9.57,9.57,0,0,1-2.14-1.88c0-.16,0-.3-.24-.27Zm3-30.17V92.53c0,1.87.28,2.14,2.17,2.15h5.51c2.38,0,2.57-.19,2.57-2.6V38.44c0-.32,0-.65,0-1-.08-1-.51-1.52-1.55-1.53q-3.58,0-7.17,0c-1,0-1.44.49-1.51,1.56,0,.37,0,.74,0,1.1Z"/><path d="M249.3,95.79a.24.24,0,0,1-.24-.27C249.27,95.49,249.3,95.63,249.3,95.79Z"/></g></g></svg>